<svg fill="#052040" xmlns="http://www.w3.org/2000/svg" xmlns:xlink="http://www.w3.org/1999/xlink" version="1.1" x="0px" y="0px" viewBox="0 0 100 100" style="enable-background:new 0 0 100 100;" xml:space="preserve"><path d="M77,18H23c-2.8,0-5,2.2-5,5v54c0,2.8,2.2,5,5,5h54c2.8,0,5-2.2,5-5V23C82,20.2,79.8,18,77,18z M23,20h54c1.7,0,3,1.3,3,3v3  H20v-3C20,21.3,21.3,20,23,20z M77,80H23c-1.7,0-3-1.3-3-3V28h60v49C80,78.7,78.7,80,77,80z M40,24H24v-2h16V24z M76,24h-2v-2h2V24z   M72,24h-2v-2h2V24z M68,24h-2v-2h2V24z M24,56h30V32H24V56z M26,34h26v20H26V34z M30,62h24v2H30V62z M24,66h30v2H24V66z M24,70h30  v2H24V70z M24,74h24v2H24V74z M56,32h20v16H56V32z M56,60h20V50H56V60z M58,52h16v6H58V52z M56,76h20V62H56V76z M58,64h16v10H58V64z  "></path></svg>