<svg fill="#B72922" xmlns="http://www.w3.org/2000/svg" xmlns:xlink="http://www.w3.org/1999/xlink" version="1.1" x="0px" y="0px" viewBox="0 0 66 66" enable-background="new 0 0 66 66" xml:space="preserve"><g><g><path d="M26.8,49.8c0.9,3,3.4,5.6,6.3,5.6c2.8,0,5.3-2.6,6.2-5.6c2-1.5,1.8-3.7,1-5.3c2.4-11.2-17-11.2-14.6,0    C24.9,46.1,24.8,48.3,26.8,49.8z"></path></g><g><path d="M39.8,53.3c-1.5,2.3-4,4.1-6.8,4.1c-2.8,0-5.3-1.8-6.8-4.1c-0.9,0.6-8.4,2-8,10.7c0,0.5,0.5,0.9,1,0.9h27.5    c0.5,0,1-0.4,1-0.9C48.2,55.4,40.8,53.9,39.8,53.3z"></path></g><g><path d="M57.6,50.4c-3.4,5.3-9.7,5.4-13.2,0c-0.9,0.6-1.5,0.4-3.2,1.5c0.4,0.2,7.4,1.8,8.5,9.6H64c0.5,0,1-0.4,1-0.9    C65.4,52.2,58.4,50.8,57.6,50.4z"></path></g><g><path d="M45.1,47.1c0.3,1,1.4,3.8,4.3,5c3.3,1.4,6.6-1.6,7.6-5c1.9-1.4,1.8-3.5,1-5.1c1.4-6.5-5.1-9.4-10.5-7.2    c-2.9,1.2-4.1,4.1-3.4,7.2C43.3,43.5,43.2,45.6,45.1,47.1z"></path></g><g><path d="M9.1,47.1c0.8,2.7,3.2,5.3,5.9,5.3c2.7,0,5.1-2.6,5.9-5.3c1.9-1.4,1.8-3.5,1-5.1c2.2-10.6-16.1-10.6-13.9,0    C7.3,43.5,7.2,45.6,9.1,47.1z"></path></g><g><path d="M24.9,51.8c-1.5-1-2.4-1-3.3-1.5c-1.5,2.3-3.9,4-6.6,4c-2.7,0-5.1-1.8-6.6-4c-1,0.6-7.8,2.1-7.4,10.1c0,0.5,0.5,0.9,1,0.9    h14.4C17.2,55.8,20.3,54,24.9,51.8z"></path></g><g><path d="M46.7,14.6v2.6c0,0.7,0.7,1.2,1.5,0.9l3.7-2C58,16.9,65,14,65,8.6C65,4.4,60,1,53.7,1c-6.3,0-11.2,3.4-11.2,7.6    C42.5,11,44.1,13.2,46.7,14.6z M55.7,7.8h2v2h-2V7.8z M49.7,7.8h2v2h-2V7.8z"></path></g><g><path d="M14.1,16.2l3.7,2c0.8,0.4,1.5-0.2,1.5-0.9v-2.6c2.7-1.4,4.2-3.6,4.2-6c0-4.3-4.9-7.6-11.3-7.6C5.9,1,1,4.4,1,8.6    C1,14,7.9,16.9,14.1,16.2z M14.2,7.8h2v2h-2V7.8z M8.2,7.8h2v2h-2V7.8z"></path></g><g><path d="M45,29.3v-8.9c0-1.1-0.9-2-2-2H23c-1.1,0-2,0.9-2,2v8.9c0,1.1,0.9,2,2,2h6.9l2.4,2.4c0.4,0.4,1,0.4,1.4,0l2.4-2.4H43    C44.1,31.3,45,30.4,45,29.3z M31,25.7h-2v-2h2V25.7z M37,25.7h-2v-2h2V25.7z"></path></g></g></svg>