<svg height='100px' width='100px'  fill="#666666" xmlns="http://www.w3.org/2000/svg" xmlns:xlink="http://www.w3.org/1999/xlink" version="1.1" x="0px" y="0px" viewBox="0 0 64 64" style="enable-background:new 0 0 64 64;" xml:space="preserve"><g><path d="M8,44c0,6.617,5.383,12,12,12s12-5.383,12-12s-5.383-12-12-12S8,37.383,8,44z M20,34c5.514,0,10,4.486,10,10   s-4.486,10-10,10s-10-4.486-10-10S14.486,34,20,34z"></path><path d="M20,50c3.309,0,6-2.691,6-6s-2.691-6-6-6s-6,2.691-6,6S16.691,50,20,50z M20,40c2.206,0,4,1.794,4,4s-1.794,4-4,4   s-4-1.794-4-4S17.794,40,20,40z"></path><path d="M63,23V1H35v10H19v14h-2.776l-0.955,3.729c-0.945,0.292-1.858,0.669-2.724,1.126l-3.31-1.961l-5.34,5.341l1.96,3.309   c-0.457,0.866-0.833,1.779-1.125,2.725L1,40.224v7.553l3.729,0.955c0.292,0.945,0.669,1.858,1.125,2.725l-1.96,3.309l5.34,5.341   l3.31-1.961c0.866,0.457,1.779,0.834,2.724,1.126L16.224,63h7.553l0.955-3.729c0.945-0.292,1.858-0.669,2.724-1.126l3.31,1.961   l5.34-5.341l-1.96-3.309c0.457-0.866,0.833-1.779,1.125-2.725L39,47.776v-7.553l-3.729-0.955c-0.292-0.945-0.669-1.858-1.125-2.725   l1.96-3.309l-5.34-5.341l-3.31,1.961c-0.866-0.457-1.779-0.834-2.724-1.126L23.776,25H21V13h14v10h13v8h-7.721l-2.667,8H48v10H38   v6.142c-1.72,0.447-3,1.999-3,3.858c0,2.206,1.794,4,4,4s4-1.794,4-4c0-1.859-1.28-3.411-3-3.858V51h8v4.142   c-1.72,0.447-3,1.999-3,3.858c0,2.206,1.794,4,4,4s4-1.794,4-4c0-1.859-1.28-3.411-3-3.858V51h8v4.142c-1.72,0.447-3,1.999-3,3.858   c0,2.206,1.794,4,4,4s4-1.794,4-4c0-1.859-1.28-3.411-3-3.858V49H50V39h7.721l2.667-8H50v-8H63z M23.08,30.345l0.564,0.152   c1.174,0.316,2.294,0.779,3.331,1.376l0.506,0.292l2.968-1.759l3.145,3.146l-1.758,2.968l0.292,0.507   c0.597,1.035,1.06,2.155,1.376,3.329l0.152,0.564L37,41.776v4.447l-3.345,0.856l-0.152,0.564c-0.316,1.174-0.779,2.294-1.376,3.329   l-0.292,0.507l1.758,2.968l-3.145,3.146l-2.968-1.759l-0.506,0.292c-1.036,0.597-2.157,1.06-3.331,1.376l-0.564,0.152L22.224,61   h-4.447l-0.856-3.345l-0.564-0.152c-1.174-0.316-2.294-0.779-3.331-1.376l-0.506-0.292l-2.968,1.759l-3.145-3.146l1.758-2.968   l-0.292-0.507c-0.597-1.035-1.06-2.155-1.376-3.329L6.345,47.08L3,46.224v-4.447l3.345-0.856l0.152-0.564   c0.316-1.174,0.779-2.294,1.376-3.329l0.292-0.507l-1.758-2.968l3.145-3.146l2.968,1.759l0.506-0.292   c1.036-0.597,2.157-1.06,3.331-1.376l0.564-0.152L17.776,27h4.447L23.08,30.345z M41,59c0,1.103-0.897,2-2,2s-2-0.897-2-2   s0.897-2,2-2S41,57.897,41,59z M51,59c0,1.103-0.897,2-2,2s-2-0.897-2-2s0.897-2,2-2S51,57.897,51,59z M61,59c0,1.103-0.897,2-2,2   s-2-0.897-2-2s0.897-2,2-2S61,57.897,61,59z M56.279,37H40.387l1.333-4h15.892L56.279,37z M37,3h24v18H37V3z"></path><rect x="39" y="5" width="20" height="2"></rect><rect x="39" y="9" width="20" height="2"></rect><rect x="39" y="13" width="20" height="2"></rect><rect x="48" y="17" width="2" height="2"></rect><rect x="52" y="17" width="2" height="2"></rect><rect x="56" y="17" width="2" height="2"></rect><rect x="44" y="17" width="2" height="2"></rect><rect x="40" y="17" width="2" height="2"></rect></g></svg>