<svg height='100px' width='100px'  fill="#666666" xmlns="http://www.w3.org/2000/svg" xmlns:xlink="http://www.w3.org/1999/xlink" version="1.1" x="0px" y="0px" viewBox="0 0 65 65" enable-background="new 0 0 65 65" xml:space="preserve"><g><polygon points="40.5,36.3 46.3,30.7 40.5,25.2 39.4,26.3 44.2,30.7 39.4,35.2  "></polygon><polygon points="25.6,35.2 20.8,30.7 25.6,26.3 24.5,25.2 18.7,30.7 24.5,36.3  "></polygon><rect x="31.8" y="19.6" transform="matrix(0.8965 0.443 -0.443 0.8965 16.9727 -11.2198)" width="1.5" height="22.1"></rect><path d="M65.3,53.3V4.6H-0.3v48.7h23.8v5.7h-4.5v1.5h26.8v-1.5h-4.5v-5.7H65.3z M63.8,47.1H1.3V13.3h62.5V47.1z M63.8,6.1v5.8H1.3   V6.1H63.8z M1.3,51.8v-3.2h62.5v3.2H1.3z M39.9,58.9H25.1v-5.7h14.8V58.9z"></path><rect x="50.8" y="8.4" width="1.5" height="1.5"></rect><rect x="58.4" y="8.4" width="1.5" height="1.5"></rect><rect x="54.6" y="8.4" width="1.5" height="1.5"></rect><rect x="5.7" y="8.4" width="40.1" height="1.5"></rect><polygon points="6.5,17.8 17.1,17.8 17.1,16.3 5,16.3 5,25.6 6.5,25.6  "></polygon><polygon points="17.1,43.9 17.1,42.4 6.5,42.4 6.5,34.6 5,34.6 5,43.9  "></polygon><polygon points="60,34.6 58.5,34.6 58.5,42.4 47.9,42.4 47.9,43.9 60,43.9  "></polygon><polygon points="58.5,25.6 60,25.6 60,16.3 47.9,16.3 47.9,17.8 58.5,17.8  "></polygon></g></svg>