<svg fill="#861367" xmlns="http://www.w3.org/2000/svg" xmlns:xlink="http://www.w3.org/1999/xlink" version="1.1" x="0px" y="0px" viewBox="0 0 64 64" style="enable-background:new 0 0 64 64;" xml:space="preserve"><style type="text/css">
	.st0{display:none;}
	.st1{display:inline;}
	.st2{fill:none;stroke:#861367;stroke-width:0.1;stroke-miterlimit:10;}
</style><g class="st0"><g class="st1"><rect x="2" y="2" class="st2" width="60" height="60"></rect><line class="st2" x1="32" y1="2" x2="32" y2="62"></line><line class="st2" x1="62" y1="32" x2="2" y2="32"></line><line class="st2" x1="2" y1="2" x2="62" y2="62"></line><rect x="10" y="10" class="st2" width="44" height="44"></rect><line class="st2" x1="62" y1="2" x2="2" y2="62"></line><line class="st2" x1="2" y1="32" x2="32" y2="2"></line><line class="st2" x1="32" y1="2" x2="62" y2="32"></line><line class="st2" x1="62" y1="32" x2="32" y2="62"></line><line class="st2" x1="32" y1="62" x2="2" y2="32"></line><circle class="st2" cx="32" cy="32" r="21"></circle></g></g><path d="M2,32v22h40V32H2z M39,51H5V35h34V51z"></path><path d="M33.1,37H10.9c-0.4,3.1-2.6,3.8-3.9,4v4.2c1.3,0.3,3.5,1.1,3.9,3.9H33c0.4-3.4,2.6-4,3.9-4v-3.9C35.7,41,33.4,40.4,33.1,37z   M22,47c-2.2,0-4-1.8-4-4s1.8-4,4-4s4,1.8,4,4S24.2,47,22,47z"></path><rect x="2" y="56" width="40" height="2"></rect><rect x="2" y="60" width="40" height="2"></rect><path d="M4,10v20h18V10H4z M12,26H6v-4h6V26z M12,18H6v-4h6V18z M20,26h-6v-4h6V26z M20,18h-6v-4h6V18z"></path><path d="M24,2v28h18V2H24z M32,26h-6v-4h6V26z M32,18h-6v-4h6V18z M32,10h-6V6h6V10z M40,26h-6v-4h6V26z M40,18h-6v-4h6V18z M40,10  h-6V6h6V10z"></path><path d="M44,10v52h6v-8h6v8h6V10H44z M52,50h-6v-4h6V50z M52,42h-6v-4h6V42z M52,34h-6v-4h6V34z M52,26h-6v-4h6V26z M52,18h-6v-4h6  V18z M60,50h-6v-4h6V50z M60,42h-6v-4h6V42z M60,34h-6v-4h6V34z M60,26h-6v-4h6V26z M60,18h-6v-4h6V18z"></path></svg>