<svg height='100px' width='100px'  fill="#666666" xmlns="http://www.w3.org/2000/svg" viewBox="0 0 100 100" x="0px" y="0px"><defs><style>.cls-1{fill:none;}</style></defs><title>Asset 492</title><g data-name="Layer 2"><g data-name="Layer 1"><rect class="cls-1" width="100" height="100"></rect><path d="M50,26.84c-22.62,0-46.66-4.7-46.66-13.42S27.38,0,50,0,96.66,4.7,96.66,13.42,72.62,26.84,50,26.84ZM50,2.89C22.88,2.89,6.23,9,6.23,13.42S22.88,24,50,24s43.77-6.13,43.77-10.53S77.12,2.89,50,2.89Z"></path><path d="M50,50.79c-22.62,0-46.66-4.7-46.66-13.42V13.42a1.45,1.45,0,1,1,2.89,0V37.37C6.23,41.77,22.88,47.9,50,47.9s43.77-6.13,43.77-10.53V14.15a1.45,1.45,0,0,1,2.89,0V37.37C96.66,46.09,72.62,50.79,50,50.79Z"></path><path d="M50,75.4C27.38,75.4,3.34,70.69,3.34,62V38a1.45,1.45,0,0,1,2.89,0V62c0,4.39,16.65,10.53,43.77,10.53S93.77,66.37,93.77,62V38.76a1.45,1.45,0,1,1,2.89,0V62C96.66,70.69,72.62,75.4,50,75.4Z"></path><path d="M50,100C27.38,100,3.34,95.3,3.34,86.58V62.63a1.45,1.45,0,1,1,2.89,0V86.58C6.23,91,22.88,97.11,50,97.11S93.77,91,93.77,86.58V63.36a1.45,1.45,0,0,1,2.89,0V86.58C96.66,95.3,72.62,100,50,100Z"></path><circle cx="57.94" cy="36.4" r="2.07"></circle><circle cx="50" cy="36.4" r="2.07"></circle><circle cx="42.06" cy="36.4" r="2.07"></circle><circle cx="57.94" cy="60.56" r="2.07"></circle><circle cx="50" cy="60.56" r="2.07"></circle><circle cx="42.06" cy="60.56" r="2.07"></circle><circle cx="57.94" cy="84.72" r="2.07"></circle><circle cx="50" cy="84.72" r="2.07"></circle><circle cx="42.06" cy="84.72" r="2.07"></circle></g></g></svg>