<svg height='100px' width='100px'  fill="#666666" xmlns="http://www.w3.org/2000/svg" xmlns:xlink="http://www.w3.org/1999/xlink" version="1.1" x="0px" y="0px" viewBox="0 0 512 512" enable-background="new 0 0 512 512" xml:space="preserve"><g><path d="M459.612,343.705c-2.206-1.276-4.582-2.204-7.037-2.787V171.993c2.447-0.578,4.822-1.496,7.04-2.763   c12.396-7.185,16.646-23.132,9.472-35.555c-4.632-8.001-13.257-12.972-22.51-12.972c-4.55,0-9.048,1.211-12.988,3.492   c-2.219,1.272-4.203,2.838-5.917,4.645L354.557,86.63l-73.175-42.222c0.713-2.369,1.101-4.877,1.101-7.476   c0-14.334-11.664-25.995-26-25.995c-14.354,0-26.031,11.661-26.031,25.995c0,2.604,0.39,5.117,1.106,7.49L85.261,128.84   c-1.71-1.803-3.688-3.365-5.897-4.631c-3.96-2.293-8.459-3.505-13.009-3.505c-9.243,0-17.876,4.965-22.557,13.002   c-7.098,12.433-2.826,28.369,9.554,35.542c2.198,1.257,4.564,2.17,7.007,2.746v168.924c-2.456,0.584-4.832,1.512-7.038,2.789   c-12.353,7.157-16.625,23.09-9.5,35.556c4.652,7.998,13.288,12.967,22.536,12.967c4.546,0,9.042-1.21,12.983-3.487   c2.222-1.273,4.209-2.843,5.925-4.651l73.139,42.217l73.151,42.195c-0.716,2.373-1.105,4.886-1.105,7.488   c0,14.341,11.677,26.008,26.031,26.008c14.334,0,25.998-11.667,26-26.008c0-2.598-0.388-5.105-1.101-7.474l73.176-42.211   l73.107-42.215c1.712,1.806,3.694,3.371,5.908,4.641c3.959,2.288,8.455,3.497,13.002,3.497c9.257,0,17.884-4.974,22.513-12.98   C476.263,366.838,472.014,350.895,459.612,343.705z M256.482,346.505c-49.649,0-90.041-40.406-90.041-90.072   c0-49.632,40.392-90.011,90.041-90.011c49.65,0,90.042,40.379,90.042,90.011C346.524,306.099,306.132,346.505,256.482,346.505z    M85.231,348.357c-3.263-3.451-7.418-5.946-11.991-7.208c-0.101-0.027-0.202-0.054-0.304-0.08   c-0.192-0.051-0.382-0.107-0.576-0.153V172.005c1.886-0.452,3.706-1.12,5.434-1.971c0.055-0.027,0.11-0.055,0.165-0.082   c0.419-0.21,0.833-0.431,1.24-0.664c0.078-0.044,0.157-0.086,0.234-0.131c0.453-0.265,0.901-0.539,1.337-0.831   c0.058-0.039,0.114-0.081,0.171-0.12c0.35-0.238,0.695-0.484,1.034-0.739c0.185-0.139,0.366-0.284,0.547-0.427   c0.203-0.161,0.404-0.325,0.602-0.492c0.205-0.173,0.408-0.347,0.608-0.526c0.161-0.145,0.317-0.294,0.475-0.442   c0.36-0.339,0.71-0.69,1.051-1.05l80.008,46.214c-6.921,13.753-10.826,29.273-10.826,45.69c0,16.435,3.909,31.972,10.837,45.739   L85.231,348.357z M347.697,210.742l79.969-46.207c3.478,3.689,7.973,6.298,12.909,7.475v168.905   c-4.941,1.176-9.445,3.784-12.934,7.476l-79.957-46.212c6.93-13.768,10.84-29.307,10.84-45.745   C358.524,240.016,354.619,224.495,347.697,210.742z M439.578,134.593c2.137-1.237,4.558-1.89,6.999-1.89   c4.985,0,9.631,2.675,12.121,6.978c3.867,6.697,1.579,15.294-5.068,19.147c-2.145,1.226-4.57,1.874-7.014,1.874   c-5.004,0-9.665-2.688-12.168-7.016c-0.005-0.008-0.008-0.016-0.013-0.024c-0.178-0.308-0.332-0.624-0.484-0.94   c-0.1-0.212-0.197-0.425-0.286-0.641c-0.018-0.042-0.033-0.084-0.05-0.126c-1.195-2.985-1.327-6.3-0.405-9.363   c0.062-0.201,0.123-0.402,0.192-0.599c0.053-0.149,0.107-0.298,0.165-0.446C434.721,138.618,436.804,136.184,439.578,134.593z    M275.36,54.789l73.197,42.234l73.121,42.212c-0.07,0.235-0.144,0.467-0.208,0.705c-1.275,4.742-1.188,9.627,0.19,14.204   l-79.98,46.214c-17.237-26.086-46.127-43.828-79.198-45.755v-92.38c4.535-1.076,8.611-3.34,11.885-6.448   c0.04-0.038,0.08-0.076,0.12-0.115c0.237-0.228,0.47-0.46,0.698-0.696C275.243,54.904,275.304,54.849,275.36,54.789z    M256.482,22.938c7.72,0,14,6.278,14,13.995c0,7.196-5.463,13.137-12.46,13.907c-0.079,0.009-0.159,0.016-0.239,0.023   c-0.429,0.04-0.862,0.066-1.301,0.066c-0.427,0-0.848-0.026-1.266-0.064c-0.108-0.01-0.216-0.02-0.323-0.032   c-0.399-0.045-0.794-0.103-1.182-0.181c-0.085-0.017-0.168-0.041-0.253-0.06c-0.31-0.068-0.615-0.147-0.917-0.235   c-0.136-0.04-0.271-0.08-0.406-0.124c-0.354-0.115-0.702-0.239-1.042-0.381c-0.093-0.039-0.182-0.084-0.274-0.124   c-0.285-0.126-0.565-0.26-0.84-0.404c-0.103-0.054-0.205-0.107-0.306-0.163c-0.347-0.193-0.688-0.396-1.017-0.617   c-0.02-0.013-0.039-0.028-0.059-0.042c-0.33-0.224-0.648-0.463-0.957-0.714c-0.046-0.037-0.092-0.073-0.137-0.111   c-0.642-0.535-1.234-1.126-1.772-1.765c-0.047-0.057-0.094-0.113-0.14-0.17c-0.237-0.292-0.463-0.593-0.677-0.903   c-0.051-0.075-0.101-0.152-0.151-0.228c-1.458-2.207-2.313-4.843-2.313-7.678C242.451,29.216,248.745,22.938,256.482,22.938z    M91.264,139.23l146.318-84.429c0.146,0.153,0.298,0.298,0.447,0.448c0.035,0.035,0.07,0.071,0.105,0.105   c0.254,0.252,0.512,0.498,0.776,0.739c0.057,0.052,0.114,0.104,0.172,0.155c0.243,0.218,0.489,0.432,0.74,0.641   c0.093,0.078,0.187,0.153,0.281,0.229c0.219,0.177,0.44,0.352,0.665,0.522c0.144,0.109,0.291,0.216,0.438,0.322   c0.181,0.131,0.361,0.261,0.545,0.387c0.211,0.145,0.426,0.285,0.641,0.424c0.127,0.082,0.252,0.164,0.38,0.244   c0.292,0.181,0.588,0.355,0.888,0.525c0.058,0.033,0.116,0.067,0.174,0.1c2.061,1.149,4.293,2.024,6.648,2.582v92.378   c-33.072,1.927-61.962,19.67-79.199,45.758l-80.012-46.216c1.066-3.541,1.354-7.264,0.84-10.964   c-0.008-0.064-0.018-0.127-0.027-0.191c-0.045-0.309-0.096-0.618-0.152-0.926c-0.035-0.191-0.071-0.383-0.11-0.573   c-0.037-0.181-0.076-0.362-0.117-0.542c-0.066-0.294-0.137-0.587-0.214-0.879c-0.011-0.042-0.02-0.084-0.031-0.127   c-0.012-0.046-0.028-0.09-0.04-0.136C91.367,139.614,91.321,139.421,91.264,139.23z M54.193,139.7   c2.514-4.315,7.173-6.996,12.162-6.996c2.441,0,4.861,0.653,7.019,1.902c3.221,1.847,5.528,4.849,6.499,8.455   c0.113,0.42,0.202,0.843,0.275,1.267c0.012,0.071,0.024,0.142,0.035,0.213c0.057,0.362,0.098,0.724,0.127,1.086   c0.012,0.16,0.019,0.32,0.025,0.48c0.011,0.247,0.016,0.494,0.013,0.74c-0.002,0.212-0.008,0.424-0.02,0.636   c-0.008,0.146-0.023,0.291-0.036,0.437c-0.035,0.395-0.086,0.789-0.154,1.181c-0.024,0.136-0.046,0.273-0.074,0.409   c-0.044,0.218-0.095,0.436-0.15,0.652c-0.053,0.208-0.114,0.414-0.177,0.619c-0.069,0.228-0.144,0.454-0.225,0.678   c-0.099,0.271-0.203,0.539-0.319,0.805c-0.052,0.12-0.106,0.239-0.161,0.358c-0.17,0.361-0.349,0.72-0.551,1.069   c-1.015,1.755-2.385,3.235-3.981,4.382c-2.346,1.676-5.195,2.629-8.175,2.629c-2.447,0-4.874-0.647-6.986-1.855   C52.677,154.988,50.381,146.378,54.193,139.7z M73.356,378.342c-2.136,1.235-4.556,1.888-6.998,1.888   c-4.991,0-9.651-2.683-12.14-6.961c-3.838-6.716-1.542-15.319,5.118-19.178c2.119-1.227,4.517-1.876,6.94-1.885   c0.028,0,0.056,0.004,0.084,0.004c0.927,0,1.841,0.094,2.732,0.272c3.87,0.784,7.293,3.191,9.333,6.675   c0.02,0.034,0.042,0.066,0.062,0.101c0.225,0.389,0.427,0.786,0.612,1.188c0.013,0.029,0.026,0.06,0.04,0.089   c0.368,0.817,0.654,1.66,0.856,2.521c0.004,0.017,0.008,0.034,0.012,0.052c0.201,0.872,0.317,1.762,0.346,2.657   c0,0.008,0,0.016,0,0.023c0.042,1.36-0.117,2.735-0.481,4.089C78.903,373.483,76.595,376.485,73.356,378.342z M237.583,458.125   l-73.179-42.211L91.271,373.7c0.317-1.059,0.558-2.135,0.737-3.218c0.002-0.013,0.004-0.026,0.007-0.04   c0.063-0.384,0.118-0.768,0.163-1.153c0.009-0.072,0.017-0.146,0.025-0.219c0.036-0.327,0.067-0.655,0.091-0.983   c0.01-0.134,0.018-0.268,0.025-0.402c0.015-0.271,0.028-0.544,0.035-0.816c0.005-0.188,0.006-0.374,0.007-0.562   c0-0.227,0-0.454-0.005-0.681c-0.005-0.225-0.015-0.447-0.025-0.671c-0.01-0.198-0.019-0.397-0.033-0.596   c-0.017-0.236-0.04-0.473-0.063-0.709c-0.019-0.193-0.038-0.387-0.062-0.58c-0.027-0.224-0.061-0.447-0.094-0.67   c-0.031-0.211-0.062-0.421-0.098-0.631c-0.033-0.188-0.071-0.376-0.108-0.563c-0.049-0.247-0.097-0.493-0.153-0.739   c-0.029-0.13-0.063-0.259-0.095-0.388c-0.074-0.304-0.15-0.605-0.235-0.906c-0.014-0.05-0.03-0.099-0.044-0.147   c-0.028-0.098-0.058-0.194-0.087-0.291l80.037-46.179c17.238,26.094,46.123,43.841,79.188,45.768v92.378   c-2.364,0.559-4.604,1.438-6.67,2.594c-0.027,0.015-0.053,0.031-0.08,0.046c-0.333,0.188-0.662,0.381-0.985,0.583   c-0.097,0.06-0.192,0.123-0.289,0.185c-0.247,0.159-0.493,0.319-0.734,0.485c-0.154,0.106-0.306,0.217-0.458,0.326   c-0.177,0.128-0.354,0.256-0.527,0.388c-0.197,0.149-0.391,0.304-0.584,0.459c-0.122,0.098-0.243,0.196-0.363,0.297   c-0.226,0.188-0.447,0.381-0.667,0.576c-0.083,0.075-0.166,0.149-0.248,0.225c-0.239,0.22-0.475,0.443-0.706,0.672   c-0.061,0.06-0.12,0.12-0.18,0.181C237.855,457.854,237.715,457.985,237.583,458.125z M256.482,489.999   c-7.737,0-14.031-6.284-14.031-14.008c0-2.845,0.86-5.491,2.328-7.703c0.033-0.05,0.064-0.103,0.098-0.152   c2.256-3.305,5.893-5.598,10.075-6.053c0.071-0.007,0.142-0.014,0.212-0.021c0.434-0.04,0.873-0.066,1.317-0.066   c0.44,0,0.875,0.026,1.305,0.066c0.077,0.007,0.153,0.014,0.23,0.022c7,0.768,12.465,6.709,12.465,13.905   C270.481,483.715,264.2,489.999,256.482,489.999z M348.56,415.913l-73.167,42.206c-3.488-3.713-7.956-6.278-12.91-7.431v-92.365   c33.063-1.927,61.947-19.672,79.186-45.764l79.994,46.232c-1.379,4.578-1.467,9.463-0.19,14.205   c0.063,0.234,0.137,0.464,0.205,0.695L348.56,415.913z M458.699,373.243c-2.491,4.31-7.137,6.986-12.124,6.986   c-2.441,0-4.862-0.653-7.017-1.897c-2.397-1.375-4.286-3.391-5.497-5.817c-0.012-0.023-0.024-0.046-0.036-0.069   c-0.169-0.342-0.316-0.696-0.457-1.055c-0.058-0.146-0.111-0.292-0.163-0.438c-0.082-0.229-0.155-0.464-0.226-0.7   c-0.091-0.31-0.172-0.621-0.242-0.935c-0.034-0.149-0.068-0.299-0.098-0.449c-0.05-0.264-0.094-0.528-0.129-0.795   c-0.005-0.037-0.008-0.074-0.013-0.111c-0.17-1.375-0.135-2.769,0.097-4.134c0.028-0.162,0.054-0.324,0.088-0.485   c0.032-0.158,0.069-0.314,0.107-0.472c0.313-1.253,0.794-2.471,1.458-3.619c2.198-3.802,6.04-6.344,10.309-6.922   c0.599-0.079,1.206-0.12,1.818-0.12c0.029,0,0.058-0.004,0.086-0.004c2.421,0.008,4.819,0.658,6.938,1.883   C460.277,357.962,462.566,366.554,458.699,373.243z"></path><path d="M235.457,277.232l-17.96-17.934l17.96-17.935c2.345-2.341,2.347-6.141,0.006-8.485c-2.341-2.344-6.14-2.347-8.485-0.006   l-22.212,22.181c-1.127,1.125-1.76,2.653-1.76,4.246s0.633,3.12,1.76,4.246l22.212,22.18c1.171,1.169,2.706,1.754,4.24,1.754   c1.537,0,3.074-0.587,4.246-1.761C237.804,283.373,237.801,279.574,235.457,277.232z"></path><path d="M285.987,232.873c-2.345-2.343-6.145-2.339-8.485,0.006s-2.338,6.144,0.007,8.485l17.96,17.935l-17.96,17.934   c-2.345,2.342-2.348,6.141-0.007,8.485c1.172,1.174,2.709,1.761,4.246,1.761c1.534,0,3.068-0.585,4.239-1.754l22.212-22.18   c1.127-1.126,1.761-2.653,1.761-4.246s-0.633-3.12-1.761-4.246L285.987,232.873z"></path><path d="M274.286,213.348c-3.087-1.214-6.567,0.304-7.78,3.387l-29.5,75.006c-1.213,3.084,0.304,6.567,3.387,7.78   c0.721,0.283,1.464,0.418,2.195,0.418c2.394,0,4.656-1.443,5.585-3.806l29.501-75.006   C278.887,218.043,277.37,214.561,274.286,213.348z"></path></g></svg>