<?xml version="1.0" encoding="utf-8"?>
<!-- Generator: Adobe Illustrator 19.0.0, SVG Export Plug-In . SVG Version: 6.00 Build 0)  -->
<svg version="1.1" id="Layer_1" xmlns="http://www.w3.org/2000/svg" xmlns:xlink="http://www.w3.org/1999/xlink" x="0px" y="0px"
	 viewBox="-949 551 1997.3 1717" style="enable-background:new -949 551 1997.3 1717;" xml:space="preserve">
<style type="text/css">
	.st0{fill:#165180;}
</style>
<g>
	<path class="st0" d="M923.5,691.5H714.9l84.9,62.4h123.8c16.4,0,32.5,6.4,44.2,18.2c11.8,11.8,18.2,27.5,18.2,44.2v1139.2H-886.6
		V816.4c0-16.4,6.4-32.5,18.2-44.2c11.8-11.8,27.5-18.2,44.2-18.2H-700l84.9-62.4h-209c-33.2,0-64.9,13.2-88.1,36.7
		c-23.5,23.5-36.7,55.3-36.7,88.1V2018c0,33.2,13.2,64.9,36.7,88.1c23.2,23.5,54.9,36.7,88.1,36.7h608.5v62.4h-156.2
		c-17.1,0-31.4,13.9-31.4,31.4s13.9,31.4,31.4,31.4h842.8c17.1,0,31.4-13.9,31.4-31.4s-13.9-31.4-31.4-31.4H314.7v-62.4h608.8
		c33.2,0,64.9-13.2,88.1-36.7c23.5-23.5,36.7-55.3,36.7-88.1V816.4c0-33.2-13.2-64.9-36.7-88.1C988.4,704.7,956.7,691.5,923.5,691.5
		L923.5,691.5z M252.6,2205.2h-405.9v-62.4h405.9L252.6,2205.2L252.6,2205.2z M923.5,2080.4H-824.2c-16.4,0-32.5-6.4-44.2-18.2
		c-11.8-11.8-18.2-27.5-18.2-44.2H985.9c0,16.4-6.4,32.5-18.2,44.2C956,2074,939.9,2080.4,923.5,2080.4z"/>
	<path class="st0" d="M-782.1,945.1c3.9,12.1,11.4,22.5,21.8,30.3c-0.7,4.3-1.4,8.6-1.4,12.8v46.7c0,29.2,11.4,57.1,32.1,77.4
		c20.7,20.7,48.5,31.7,77.8,31.7c29.2-0.4,57.1-12.1,77.4-32.8c20.3,21,48.5,32.8,78.1,32.8s57.4-11.8,78.1-32.8
		c20.3,21,48.5,32.8,78.1,32.8c29.6,0,57.4-11.8,78.1-32.8c20.3,21,48.5,32.8,78.1,32.8s57.4-11.8,78.1-32.8
		c20.3,21,48.5,32.8,78.1,32.8s57.4-11.8,78.1-32.8c20.3,21,48.5,32.8,78.1,32.8s57.4-11.8,78.1-32.8c20.3,21,48.5,32.8,78.1,32.8
		c29.6,0,57.4-11.8,78.1-32.8c20.3,21,48.5,32.8,78.1,32.8c29.6,0,57.4-11.8,78.1-32.8c20.3,21,48.5,32.8,78.1,32.8
		s57.4-11.8,78.1-32.8c20.3,20.7,48.2,32.8,77.4,32.8c29.2,0.4,57.1-11.1,77.8-31.7c20.7-20.7,32.1-48.5,32.1-77.4v-46.7
		c0-4.3-0.4-8.6-1.4-12.8c15.7-11.8,25-30.3,24.6-50.3c0-19.6-9.6-38.2-25.3-49.9L606.1,688c-3.2-2.1-6.4-4.3-9.6-5.7
		c0.4-2.1,0.7-4.3,0.7-6.4v-62.4c0-16.4-6.4-32.5-18.2-44.2c-11.8-11.8-27.5-18.2-44.2-18.2h-998.7c-16.4,0-32.5,6.4-44.2,18.2
		c-11.8,11.8-18.2,27.5-18.2,44.2v62.4c0,8.6,1.8,16.8,5,24.6l-237.2,174.8c-10.7,7.8-18.5,18.9-22.5,31.4
		C-786.4,919.1-786,932.6-782.1,945.1L-782.1,945.1z M-605.9,1035c0,26-21,46.7-46.7,46.7c-25.7,0-46.7-21-46.7-46.7v-46.7h93.8
		v46.7H-605.9z M-449.7,1035c0,26-21,46.7-46.7,46.7c-25.7,0-46.7-21-46.7-46.7v-46.7h93.4V1035z M-293.8,1035
		c0,26-21,46.7-46.7,46.7s-46.7-21-46.7-46.7v-46.7h93.8v46.7H-293.8z M-137.6,1035c0,26-21,46.7-46.7,46.7s-46.7-21-46.7-46.7
		v-46.7h93.8v46.7H-137.6z M18.3,1035c0,26-21,46.7-46.7,46.7s-46.7-21-46.7-46.7v-46.7h93.8v46.7H18.3z M174.5,1035
		c0,26-21,46.7-46.7,46.7s-46.7-21-46.7-46.7v-46.7h93.4V1035z M330.4,1035c0,26-21,46.7-46.7,46.7s-46.7-21-46.7-46.7v-46.7h93.8
		v46.7H330.4z M486.6,1035c0,26-21,46.7-46.7,46.7c-25.7,0-46.7-21-46.7-46.7v-46.7h93.8v46.7H486.6z M642.5,1035
		c0,26-21,46.7-46.7,46.7c-25.7,0-46.7-21-46.7-46.7v-46.7h93.8v46.7H642.5z M798.7,1035c0,26-21,46.7-46.7,46.7
		c-25.7,0-46.7-21-46.7-46.7v-46.7h93.4V1035z M-465.4,613.8h998.7v62.4h-998.7V613.8z M-468.6,738.6H567.6l254.3,187.3H-722.9
		L-468.6,738.6z"/>
	<path class="st0" d="M-652.6,1237.9c-17.1,0-31.4,13.9-31.4,31.4v530.7c0,25,10,48.5,27.5,66.3c17.5,17.5,41.4,27.5,66.3,27.5
		H689.5c25,0,48.5-10,66.3-27.5c17.5-17.5,27.5-41.4,27.5-66.3V1269c0-17.1-13.9-31.4-31.4-31.4c-17.5,0-31.4,13.9-31.4,31.4v530.7
		c0,17.1-13.9,31-31.4,31.4H-30.2c-10-1.1-18.5-7.8-21.8-17.8c-5-12.1-3.6-26.4,3.6-37.5c3.6-5.4,8.9-8.9,15-10.3
		c1.4,0,305,0.4,305,0.4c13.9-0.4,27.5-5.3,38.5-14.3c11.1-8.9,18.5-21,21.8-34.6l74.5-283.9l0,0c5.7-19.3,2.5-40.3-9.3-57.1
		s-30.3-26.8-50.6-27.8h-481.5c-8.6,0-16.8,1.8-24.6,5.3l-25-64.9l0,0c-4.6-11.8-16.1-19.6-28.9-19.6h-95.6
		c-17.1,0-31.4,13.9-31.4,31.4c0,17.5,13.9,31.4,31.4,31.4h74.5l147.7,392.3c0,0.4,0.4,0.7,0.7,1.1l0,0c-5,4.6-9.6,10-13.6,15.7
		c-17.5,26.8-21.8,59.9-11.8,89.9h-478.6c-17.1,0-31-13.9-31.4-31.4V1269C-621.2,1251.9-635.1,1237.6-652.6,1237.9L-652.6,1237.9z
		 M-134.7,1418.1c-1.1-2.5-0.7-5,0.7-7.1h478.6c1.4,1.8,1.8,4.3,1.1,6.4l-74.2,283.9c-0.4,0.7-0.4,1.4-1.1,2.1H-27.7
		c-0.4-0.4-0.7-1.1-0.7-1.4L-134.7,1418.1z"/>
</g>
</svg>
