<?xml version="1.0" encoding="utf-8"?>
<!-- Generator: Adobe Illustrator 19.0.0, SVG Export Plug-In . SVG Version: 6.00 Build 0)  -->
<svg version="1.1" id="Layer_1" xmlns="http://www.w3.org/2000/svg" xmlns:xlink="http://www.w3.org/1999/xlink" x="0px" y="0px"
	 viewBox="-949 551 1712.7 1713" style="enable-background:new -949 551 1712.7 1713;" xml:space="preserve">
<style type="text/css">
	.st0{fill:#165180;}
	.st1{fill:#165180;stroke:#165180;stroke-width:12.8797;stroke-miterlimit:10;}
</style>
<g>
	<path class="st0" d="M652.3,1295.8h-5.5L508,962.2c1.9-1.9,3.5-1.9,3.5-3.5c43.1-43.1,43.1-113.7,0-156.8
		c-43.1-43.1-113.7-43.1-156.8,0c-1.9,1.9-1.9,3.5-3.5,3.5L19.6,668.2v-5.5C19.6,601.6-31,551-92.2,551s-111.7,50.6-111.7,111.7v5.5
		L-537.5,807c-1.9-1.9-1.9-3.5-3.5-3.5c-43.1-43.1-113.7-43.1-156.8,0c-43.1,43.1-43.1,113.7,0,156.8c1.9,1.9,3.5,1.9,3.5,3.5
		l-137.2,331.7h-5.5c-61.5,0.3-112.1,50.9-112.1,112.1c0,61.2,50.6,111.7,111.7,111.7h5.5l138.8,333.6c-1.9,1.9-3.5,1.9-3.5,3.5
		c-43.1,43.1-43.1,113.7,0,156.8c43.1,43.1,113.7,43.1,156.8,0c1.9-1.9,1.9-3.5,3.5-3.5l331.7,137.2v5.5
		c0,61.2,50.6,111.7,111.7,111.7s111.7-50.6,111.7-111.7v-5.5L352.5,2008c1.9,1.9,1.9,3.5,3.5,3.5c43.1,43.1,113.7,43.1,156.8,0
		c43.1-43.1,43.1-113.7,0-156.8c-1.9-1.9-3.5-1.9-3.5-3.5l137.2-331.7h5.5c61.2,0,111.7-50.6,111.7-111.7
		C763.7,1346.6,713.4,1295.8,652.3,1295.8L652.3,1295.8z M439.4,1824.2c-20-1.9-39.6,3.5-56,12.6l-110.1-110.1l-47,47l110.1,110.1
		c-9,18-12.6,38-12.6,56L-9.7,2078.5c-12.6-14.5-29-25.1-48.6-30.6v-155.2H-125v155.2c-20,5.5-36.1,16.1-48.6,30.6l-333.6-138.8
		c1.9-20-3.5-39.6-12.6-56l110.1-110.1l-47-47l-110.1,110.1c-18-9-38-12.6-56-12.6l-138.8-333.6c14.5-12.6,25.1-29,30.6-48.6h155.2
		v-66.7H-731c-5.5-20-16.1-36.1-30.6-48.6l138.8-333.6c20,1.9,39.6-3.5,56-12.6l110.1,110.1l47-47l-110.1-110.1
		c9-18,12.6-38,12.6-56l333.6-138.8c12.6,14.5,29,25.1,48.6,30.6v155.2h66.7V769.3c20-5.5,36.1-16.1,48.6-30.6l333.6,138.8
		c-1.9,20,3.5,39.6,12.6,56l-110.1,110.1l47,47l110.1-110.1c18,9,38,12.6,56,12.6l138.8,333.6c-14.5,12.6-25.1,29-30.6,48.6H392.4
		v66.7h155.2c5.5,20,16.1,36.1,30.6,48.6L439.4,1824.2z"/>
	<path class="st0" d="M271.7,1326.4l-72.1-10.9c-9-21.6-10.9-27-20-50.6l43.1-59.6c10.9-16.1,10.9-38-3.5-52.2l-59.6-57.6
		c-14.5-14.5-36.1-16.1-52.2-3.5L47.9,1137c-21.6-9-27-10.9-50.6-20l-10.9-72.1c-3.5-20-20-34.1-39.6-34.1h-84.4
		c-20,0-36.1,14.5-39.6,34.1l-10.9,72.1c-21.6,9-27,10.9-50.6,20l-59.6-43.1c-10.9-12.6-32.5-10.9-47,1.9l-59.6,59.6
		c-14.5,14.5-16.1,36.1-3.5,50.6l43.1,59.6c-9,21.6-10.9,27-20,50.6l-72.1,10.9c-20,3.5-34.1,20-34.1,39.6v84.7
		c0,20,14.5,36.1,34.1,39.6l72.1,10.9c9,21.6,10.9,27,20,50.6l-42.8,58.9c-10.9,12.6-9,34.1,3.5,48.6l59.6,59.6
		c14.5,14.5,36.1,16.1,50.6,3.5l59.6-43.1c21.6,9,27,10.9,50.6,20l10.9,72.1c3.5,20,20,34.1,39.6,34.1H-49c20,0,36.1-14.5,39.6-34.1
		l10.9-72.1c21.6-9,27-10.9,50.6-20l59.6,43.1c16.1,10.9,38,10.9,52.2-3.5l59.6-59.6c14.5-14.5,16.1-36.1,3.5-52.2l-48.9-59.6
		c9-21.6,10.9-27,20-50.6l72.1-10.9c20-3.5,34.1-20,34.1-39.6v-84.7C306.1,1346.3,291.6,1329.9,271.7,1326.4L271.7,1326.4z
		 M-92.5,1569.8c-90.2,0-162.3-72.1-162.3-162.3c0-90.2,72.1-162.3,162.3-162.3s162.3,72.1,162.3,162.3
		C69.8,1497.7-2.3,1569.8-92.5,1569.8z"/>
	<g id="XMLID_2_">
		<path id="XMLID_3_" class="st1" d="M-148.8,1300.9h56.7c14.8,0,27.4,1.3,38,4.2c10.6,2.9,20.3,7.7,28.7,15.5
			c22.2,19,33.5,48.3,33.5,87.3c0,12.9-1,24.8-3.2,35.4c-2.3,10.6-5.8,20.3-10.3,28.7c-4.8,8.7-10.6,16.1-18,22.9
			c-5.8,5.2-11.9,9.3-19,12.6c-6.8,3.2-14.2,5.5-22.2,6.4c-7.7,1.3-16.7,1.9-26.7,1.9h-56.7c-8,0-13.8-1.3-18-3.5
			c-3.9-2.3-6.8-5.8-7.7-10c-1.3-4.5-1.9-10-1.9-17.1v-157.5c0-9.3,2.3-16.1,6.4-20.3C-164.9,1303.2-158.2,1300.9-148.8,1300.9z
			 M-132.1,1335.4v145.9h33.2c7.1,0,12.9-0.3,17.1-0.6c4.2-0.3,8.4-1.3,12.9-2.9s8-3.9,11.6-6.4c14.5-12.2,21.9-33.5,21.9-63.8
			c0-21.3-3.2-37-9.7-47.7s-14.2-17.4-23.8-20.3c-9.3-2.9-20.6-4.2-34.1-4.2L-132.1,1335.4L-132.1,1335.4z"/>
	</g>
</g>
</svg>
