<?xml version="1.0" encoding="UTF-8" standalone="no"?>
<svg
   xmlns:dc="http://purl.org/dc/elements/1.1/"
   xmlns:cc="http://creativecommons.org/ns#"
   xmlns:rdf="http://www.w3.org/1999/02/22-rdf-syntax-ns#"
   xmlns:svg="http://www.w3.org/2000/svg"
   xmlns="http://www.w3.org/2000/svg"
   xml:space="preserve"
   viewBox="-0.208 0 129.4079 40.323051"
   height="40.323051"
   width="129.4079"
   y="0px"
   x="0px"
   id="Layer_1"
   version="1.2"><metadata
   id="metadata42"><rdf:RDF><cc:Work
       rdf:about=""><dc:format>image/svg+xml</dc:format><dc:type
         rdf:resource="http://purl.org/dc/dcmitype/StillImage" /><dc:title></dc:title></cc:Work></rdf:RDF></metadata><defs
   id="defs40" />

<g
   style=""
   id="g2322"><g
     style=""
     id="g2305"><path
       d="m 125.23894,31.532252 3.96096,-19.667416 -6.31953,-0.0032 L 125.19857,0.0033 112.21835,0 c -5.70426,0 -10.6059,1.495079 -14.57615,4.445455 -4.15798,3.092409 -6.59851,8.029052 -7.75035,14.753864 L 87.4485,31.532202 Z M 93.98726,19.991767 c 0.94755,-5.560169 3.05944,-9.592377 6.27634,-11.983772 3.19428,-2.378 7.21459,-3.58202 11.95111,-3.58202 h 7.76246 l -1.81152,8.868178 h -10.04634 l -1.11146,5.042188 16.23264,-0.0016 -1.79618,8.77603 -28.67065,-0.0032 z"
       id="Shape-2"
       style="fill:#000000;fill-opacity:1;fill-rule:nonzero;stroke:none;stroke-width:1;" /><path
       id="path939-1"
       d="m 87.10432,39.903657 0.85995,-4.249155 h 35.00493 l -0.80936,4.19857 z"
       style="fill:#000000;fill-opacity:0.25098039;stroke:none;stroke-width:1px;stroke-linecap:butt;stroke-linejoin:miter;stroke-opacity:1;" /><path
       id="path1021-9"
       d="m 92.96214,26.877476 h 28.2442 l 0.91007,-4.312667 h -16.0355 l 2.0384,-9.270656 h 9.92593 l 1.07307,-5.481617 h -9.78112 c 0,0 -15.37351,-0.250384 -16.37505,19.06494 z"
       style="fill:#000000;fill-opacity:0.25098039;stroke:none;stroke-width:1px;stroke-linecap:butt;stroke-linejoin:miter;stroke-opacity:1;" /></g><g
     style=""
     id="g2300"><g
       transform="translate(-136.34486,79.804558)"
       style="fill:#000000;fill-opacity:1;"
       id="g1625"><path
         style="fill:#000000;fill-opacity:1;fill-rule:nonzero;stroke:none;stroke-width:1;"
         d="m 146.52532,-65.801633 -0.62255,3.015733 -4.58432,-0.03613 c -0.88739,-0.0069 -1.68152,-0.119752 -2.38158,-0.337336 -0.70047,-0.217584 -1.2786,-0.553297 -1.7336,-1.005514 -0.455,-0.452624 -0.7687,-1.01607 -0.94109,-1.690743 -0.1732,-0.674267 -0.16674,-1.460168 0.0186,-2.356485 0.15988,-0.775347 0.44572,-1.488584 0.85752,-2.140525 0.4118,-0.65194 0.9322,-1.214574 1.56121,-1.689524 0.62981,-0.473733 1.35208,-0.841109 2.16882,-1.102129 0.81553,-0.260208 1.70211,-0.386862 2.65935,-0.379149 l 0.12152,8.12e-4 0.18733,-0.908089 2.87171,0.02273 -1.77358,8.593356 z m -3.87941,-9.912257 c -0.36659,0.263861 -0.76345,0.394168 -1.18978,0.390921 -0.42715,-0.0032 -0.7683,-0.139238 -1.02426,-0.408377 -0.25677,-0.269138 -0.33348,-0.651534 -0.23093,-1.148406 0.0949,-0.45993 0.32379,-0.828118 0.68674,-1.104564 0.36295,-0.27604 0.76345,-0.412436 1.20189,-0.409188 0.43845,0.0037 0.78121,0.145733 1.02951,0.426644 0.24829,0.281316 0.32419,0.651534 0.22931,1.111871 -0.10214,0.496871 -0.3363,0.876832 -0.70248,1.141099 z m -0.58379,9.87694 0.96369,-4.669534 -0.70934,-0.0057 c -0.33429,-0.0028 -0.67423,0.04912 -1.01982,0.155881 -0.34559,0.106356 -0.66574,0.258584 -0.96046,0.456277 -0.29513,0.197693 -0.54705,0.438416 -0.75538,0.721762 -0.20913,0.283753 -0.35205,0.613376 -0.42956,0.988466 -0.0799,0.387673 -0.0795,0.724197 -4e-4,1.00998 0.0791,0.285782 0.2172,0.526911 0.41382,0.722168 0.19661,0.195663 0.44006,0.346267 0.72953,0.451406 0.29028,0.105545 0.60236,0.159535 0.93665,0.162376 z m 4.33723,-9.847306 c -0.36618,0.263861 -0.76304,0.394168 -1.18937,0.39092 -0.42715,-0.0032 -0.7683,-0.139237 -1.02507,-0.408376 -0.25596,-0.269139 -0.33347,-0.651535 -0.23093,-1.148406 0.0949,-0.459931 0.3246,-0.828119 0.68755,-1.104564 0.36255,-0.27604 0.76345,-0.412436 1.20189,-0.409188 0.44975,0.0036 0.79494,0.145732 1.03798,0.426643 0.24224,0.281317 0.31612,0.651535 0.22125,1.111871 -0.10255,0.496872 -0.33671,0.876832 -0.7033,1.1411 z"
         id="path13-3-8" /><path
         style="fill:#000000;fill-opacity:1;fill-rule:nonzero;stroke:none;stroke-width:1;"
         d="m 145.74734,-65.807722 3.61496,0.02842 1.58625,-7.685267 2.8709,0.02273 -1.58624,7.685266 3.18257,0.02517 -0.62254,3.015732 -9.66885,-0.07672 z m 2.80146,6.527525 c -0.37063,0.258178 -0.76386,0.385237 -1.17889,0.38199 -0.41503,-0.0032 -0.75416,-0.136396 -1.01779,-0.399446 -0.26323,-0.263049 -0.34357,-0.642604 -0.24143,-1.139069 0.0953,-0.460337 0.32419,-0.831772 0.68876,-1.113901 0.36456,-0.282535 0.76546,-0.421772 1.20391,-0.418119 0.43845,0.0037 0.78081,0.148574 1.02749,0.43598 0.24708,0.287 0.32257,0.660466 0.22729,1.121208 -0.10174,0.49606 -0.33832,0.873584 -0.70934,1.131357 z m 3.75385,0.02963 c -0.37103,0.258178 -0.76426,0.385238 -1.17889,0.38199 -0.41583,-0.0032 -0.75456,-0.136396 -1.01779,-0.399445 -0.26404,-0.26305 -0.34357,-0.642604 -0.24143,-1.139069 0.0949,-0.460337 0.32419,-0.831773 0.68876,-1.113901 0.36456,-0.282535 0.76546,-0.421773 1.20391,-0.418119 0.44975,0.0037 0.79534,0.148574 1.03596,0.43598 0.24103,0.286594 0.3141,0.660465 0.21923,1.120802 -0.10215,0.496871 -0.33873,0.87399 -0.70975,1.131762 z"
         id="path15-6-9" /><path
         style="fill:#000000;fill-opacity:1;fill-rule:nonzero;stroke:none;stroke-width:1;"
         d="m 154.62044,-65.737494 1.60804,0.01258 c 0.0485,-0.400258 0.0945,-0.709178 0.13969,-0.926763 0.16755,-0.811475 0.46429,-1.564495 0.89103,-2.258653 0.42593,-0.694158 0.93584,-1.303069 1.52851,-1.825514 0.59348,-0.523258 1.24953,-0.933258 1.96978,-1.230812 0.71944,-0.297555 1.45463,-0.443693 2.20394,-0.43801 0.76063,0.0061 1.44252,0.160346 2.04407,0.462366 0.60156,0.30202 1.09975,0.715267 1.4946,1.239743 0.39363,0.524881 0.65969,1.13988 0.79696,1.844593 0.13807,0.704713 0.12152,1.468693 -0.0485,2.292753 -0.0448,0.21799 -0.13202,0.526505 -0.26041,0.92595 l 1.88581,0.01502 -0.62255,3.015733 -3.35658,-0.02639 c -0.56885,0.517168 -1.23137,0.930415 -1.98835,1.239742 -0.75659,0.309327 -1.5273,0.461149 -2.31174,0.45506 -0.77314,-0.0061 -1.46351,-0.172931 -2.07152,-0.498901 -0.60802,-0.326377 -1.09047,-0.745713 -1.44656,-1.25801 l -3.07882,-0.02436 z m 5.63683,1.563683 c 0.28302,0.142079 0.60317,0.214336 0.96047,0.217178 0.3573,0.0028 0.71137,-0.06089 1.0622,-0.19201 0.35004,-0.130307 0.66858,-0.315822 0.95522,-0.556544 0.28584,-0.240317 0.52888,-0.523664 0.72913,-0.849634 0.20025,-0.32597 0.34075,-0.682386 0.42069,-1.070465 0.0799,-0.387268 0.0912,-0.75099 0.0347,-1.091575 -0.0573,-0.340178 -0.17563,-0.632049 -0.35649,-0.876425 -0.18128,-0.243971 -0.41786,-0.436792 -0.71258,-0.578872 -0.29432,-0.141673 -0.63103,-0.214336 -1.01174,-0.217584 -0.36941,-0.0028 -0.72106,0.06739 -1.05696,0.210277 -0.3355,0.142891 -0.64112,0.334495 -0.91565,0.574812 -0.27534,0.240723 -0.51071,0.530159 -0.70814,0.868307 -0.19661,0.338149 -0.33348,0.69497 -0.41099,1.07006 -0.0775,0.375495 -0.0876,0.730693 -0.0299,1.064782 0.0585,0.334089 0.17522,0.619871 0.35165,0.857752 0.17642,0.238287 0.40614,0.428674 0.68835,0.569941 z"
         id="path17-7-7" /><path
         style="fill:#000000;fill-opacity:1;fill-rule:nonzero;stroke:none;stroke-width:1;"
         d="m 168.09482,-65.631138 3.61578,0.02842 1.58624,-7.685267 2.8709,0.02273 -2.20879,10.700999 -6.48668,-0.05115 z m 1.90276,6.520624 c -0.37102,0.258178 -0.76425,0.385237 -1.17888,0.38199 -0.41503,-0.0032 -0.75456,-0.136396 -1.01779,-0.399446 -0.26323,-0.263049 -0.34357,-0.642604 -0.24143,-1.139069 0.0949,-0.460337 0.32419,-0.831772 0.68876,-1.113495 0.36456,-0.282535 0.76546,-0.421772 1.20391,-0.418119 0.43845,0.0032 0.78081,0.148574 1.02748,0.43598 0.24708,0.287 0.32258,0.660466 0.22771,1.120802 -0.10215,0.496466 -0.33873,0.873585 -0.70976,1.131357 z m 3.75386,0.03004 c -0.37063,0.258179 -0.76426,0.385238 -1.17889,0.38199 -0.41584,-0.0032 -0.75456,-0.136396 -1.01779,-0.399445 -0.26404,-0.26305 -0.34357,-0.642604 -0.24143,-1.139069 0.0949,-0.460337 0.32419,-0.831773 0.68876,-1.113901 0.36376,-0.282535 0.76546,-0.421773 1.20391,-0.418119 0.44975,0.0037 0.79534,0.148574 1.03596,0.43598 0.24103,0.287 0.3141,0.660465 0.21923,1.120802 -0.10215,0.496465 -0.33873,0.873584 -0.70975,1.131762 z"
         id="path19-5-3" /><path
         style="fill:#000000;fill-opacity:1;fill-rule:nonzero;stroke:none;stroke-width:1;"
         d="m 176.05268,-65.568217 6.03692,0.0479 0.52525,-2.54403 c 0.0698,-0.338554 0.0957,-0.632861 0.0779,-0.882109 -0.0186,-0.248435 -0.0771,-0.464802 -0.17885,-0.647475 -0.0892,-0.182672 -0.2382,-0.329623 -0.44612,-0.440038 -0.20792,-0.110822 -0.45015,-0.167654 -0.72711,-0.169683 l -3.01947,-0.02395 0.62254,-3.015733 2.77764,0.02192 c 0.80705,0.0065 1.49622,0.123812 2.06668,0.353168 0.57047,0.229357 1.03435,0.599575 1.39044,1.111872 0.31087,0.451406 0.47639,1.007544 0.49577,1.668821 0.0198,0.661683 -0.0509,1.380198 -0.21074,2.154733 l -1.12519,5.450564 -8.90823,-0.07063 z"
         id="path21-3-6" /><polygon
         transform="translate(135.83504,-79.932831)"
         style="fill:#000000;fill-opacity:1;fill-rule:nonzero;stroke:none;stroke-width:1;"
         id="polygon23-1"
         points="54.323447,2.2655545 57.195155,2.2882871 54.678727,14.479089 56.892764,14.496545 56.270217,17.512277 51.184472,17.472089 " /><path
         style="fill:#000000;fill-opacity:1;fill-rule:nonzero;stroke:none;stroke-width:1;"
         d="m 191.93246,-65.442376 10.77627,0.08525 0.35246,-1.708198 c 0.0698,-0.338554 0.0957,-0.632861 0.0779,-0.882109 -0.0178,-0.248436 -0.0775,-0.464802 -0.17805,-0.647475 -0.09,-0.182673 -0.23779,-0.33206 -0.4445,-0.449376 -0.20752,-0.116911 -0.44894,-0.176179 -0.7259,-0.178614 l -7.3341,-0.05805 c -0.19702,-0.389705 -0.33429,-0.803358 -0.41099,-1.240962 -0.0775,-0.437198 -0.0638,-0.964921 0.0412,-1.582762 l 4.02838,-5.500089 3.11354,0.02476 -3.78373,5.320257 4.7224,0.03735 c 0.80705,0.0065 1.49621,0.124218 2.06667,0.353169 0.57047,0.22895 1.03395,0.599574 1.39124,1.111871 0.31087,0.451406 0.47559,1.00795 0.49578,1.668821 0.0194,0.661683 -0.0517,1.380198 -0.21155,2.154733 l -0.95239,4.614732 -13.64758,-0.10798 z"
         id="path25-2" /><path
         style="fill:#000000;fill-opacity:1;fill-rule:nonzero;stroke:none;stroke-width:1;"
         d="m 210.41709,-77.270266 c 0.1849,-0.896317 0.53292,-1.533644 1.04403,-1.911575 0.51112,-0.378336 1.13609,-0.564257 1.8741,-0.558574 l 1.09007,0.0085 -0.26646,1.290079 -0.95199,-0.0077 c -0.27696,-0.002 -0.47519,0.05034 -0.5959,0.158723 -0.12031,0.108386 -0.27898,0.604852 -0.29391,0.677109 l 3.03198,0.01745 -0.28826,1.429317 -4.86531,-0.03207 z m 0.20025,1.966782 2.8717,0.02273 -2.68518,13.008366 -2.87171,-0.02273 z"
         id="path27-5-9" /></g><path
       id="path1702"
       d="m 39.19527,40.229604 c -0.7413,-0.121453 -1.1763,-0.322585 -1.1763,-0.543889 0,-0.387944 0.31135,-2.429029 0.38181,-2.502976 0.0406,-0.0426 0.39325,0.01809 0.78369,0.134871 0.96445,0.288456 2.29959,0.305519 2.76898,0.03539 0.17911,-0.103078 0.32108,-0.229985 0.31549,-0.282016 -0.006,-0.05203 -0.32576,-0.143207 -0.7115,-0.202612 -1.521,-0.234244 -2.09434,-0.492882 -2.79718,-1.261834 -0.57607,-0.630251 -0.74129,-1.136045 -0.74129,-2.269302 0,-1.0798 0.16889,-1.785372 0.63723,-2.662051 0.64048,-1.198906 1.79252,-2.118785 3.33807,-2.665387 0.77344,-0.273532 0.81753,-0.277933 2.91643,-0.291062 1.17212,-0.0073 2.15995,0.0147 2.19518,0.04895 0.0352,0.03426 -0.22074,1.396522 -0.56882,3.027258 -0.34808,1.630737 -0.63263,3.06076 -0.63235,3.17783 l 5.3e-4,0.212854 h 2.73447 c 2.521,0 2.73841,-0.01292 2.78475,-0.165553 0.0276,-0.09106 0.29514,-1.336251 0.59441,-2.767103 0.29928,-1.430853 0.58782,-2.654764 0.64121,-2.719802 0.0682,-0.08312 0.45163,-0.118253 1.29048,-0.118253 0.99492,0 1.20304,0.02466 1.25126,0.148285 0.0318,0.08156 -0.18622,1.305468 -0.48454,2.719802 -0.29831,1.414335 -0.54209,2.673102 -0.54173,2.797262 6.7e-4,0.224932 0.004,0.225579 0.89026,0.179781 1.27606,-0.06593 1.85712,-0.400989 2.19031,-1.263027 0.0568,-0.147015 0.29591,-1.178302 0.5313,-2.291749 0.23539,-1.113446 0.4522,-2.062991 0.4818,-2.1101 0.0746,-0.118792 2.51631,-0.110044 2.59128,0.0093 0.0328,0.05222 -0.1153,0.914274 -0.32913,1.915687 -0.59115,2.76844 -0.59092,2.766935 -0.47156,3.116932 0.14894,0.436749 0.34222,0.628052 0.75848,0.750728 0.59884,0.176484 1.19939,0.03153 1.68189,-0.405944 0.48914,-0.443501 0.52728,-0.545223 1.19996,-3.199749 0.26999,-1.065455 0.5366,-1.99137 0.59247,-2.057589 0.0722,-0.08563 0.44625,-0.120399 1.295,-0.120399 0.97593,0 1.20358,0.02605 1.24918,0.142934 0.0307,0.07861 -0.2306,1.238669 -0.5806,2.5779 -0.35,1.33923 -0.63612,2.466028 -0.63582,2.503993 2.9e-4,0.03797 0.18447,0.165679 0.40928,0.283806 0.40194,0.211206 0.46309,0.214777 3.67865,0.214777 h 3.26992 l 0.32058,-0.946019 c 0.37749,-1.113974 0.4108,-1.63672 0.14205,-2.229579 -0.1669,-0.36818 -0.27201,-0.464351 -0.71009,-0.649729 -0.725,-0.306789 -1.62612,-0.246615 -2.50822,0.167492 -0.82263,0.386185 -0.91797,0.381085 -1.03367,-0.05529 -0.48037,-1.811823 -0.49072,-1.943733 -0.16875,-2.151247 0.12401,-0.07993 0.58925,-0.280868 1.03387,-0.446536 0.78671,-0.293133 0.85098,-0.30135 2.39527,-0.306219 1.34652,-0.0042 1.63996,0.02099 1.93741,0.166606 0.64473,0.315637 1.12124,0.804969 1.48084,1.520675 0.30026,0.597611 0.3531,0.806605 0.39931,1.57947 0.0293,0.489899 0.004,1.210007 -0.0561,1.600239 -0.14153,0.918202 -0.70447,2.545426 -1.25707,3.633696 l -0.43664,0.85989 h -4.47209 c -4.9272,0 -4.78532,0.01555 -5.50161,-0.603077 -0.18827,-0.162602 -0.36868,-0.29564 -0.40091,-0.29564 -0.0322,0 -0.25653,0.148608 -0.49843,0.33024 -0.67699,0.508307 -1.32083,0.661505 -2.78367,0.662353 -1.42552,8.52e-4 -1.85573,-0.128145 -2.48187,-0.744048 -0.19187,-0.188731 -0.38357,-0.343147 -0.426,-0.343147 -0.0424,0 -0.40976,0.164361 -0.81628,0.365247 -1.2145,0.600154 -1.34477,0.610191 -6.91908,0.533082 l -4.96897,-0.06874 -0.34093,0.725838 c -0.44157,0.940095 -1.37011,1.91286 -2.15709,2.259823 -0.92218,0.406569 -2.32012,0.538973 -3.5548,0.336686 z m 3.96772,-6.25683 c 0.29789,-1.256417 0.71305,-3.415273 0.66996,-3.483847 -0.1139,-0.181283 -1.04465,-0.08951 -1.58233,0.156024 -0.91517,0.417913 -1.40643,1.044484 -1.50166,1.915266 -0.10956,1.001874 0.58859,1.577955 1.95666,1.614532 0.34742,0.0093 0.41428,-0.02024 0.45737,-0.201975 z M 29.85955,40.07897 c -0.0793,-0.0284 -0.26328,-0.160716 -0.40874,-0.294036 -0.23042,-0.211189 -0.26448,-0.313814 -0.26448,-0.797011 0,-0.645989 0.16426,-1.01092 0.60099,-1.335216 0.49047,-0.364207 1.04967,-0.493486 1.52659,-0.352932 0.63395,0.186831 0.85382,0.469067 0.85382,1.096032 0,0.590754 -0.13734,0.91495 -0.55166,1.30224 -0.40579,0.379324 -1.24968,0.562332 -1.75652,0.380923 z m -1.68304,-3.348597 c -0.86789,-0.121875 -1.34135,-0.335031 -1.94039,-0.873574 -0.77144,-0.693526 -0.8918,-1.007028 -0.89582,-2.333384 -0.003,-0.885364 0.0619,-1.404966 0.34682,-2.790753 0.19257,-0.936558 0.39315,-1.756046 0.44575,-1.821085 0.0673,-0.0832 0.44942,-0.118252 1.28904,-0.118252 1.00777,0 1.20265,0.02366 1.25277,0.152136 0.0326,0.08367 -0.10421,0.935126 -0.30412,1.892113 -0.39391,1.88576 -0.39818,2.27068 -0.0296,2.664298 0.4504,0.480935 0.70776,0.526272 3.36315,0.569528 l 2.46973,0.04186 0.0948,-0.365873 c 0.0521,-0.201231 0.27924,-1.37693 0.50469,-2.612667 l 0.40992,-2.246793 h 1.22141 c 0.87342,0 1.25045,0.03441 1.32331,0.120777 0.0735,0.08711 -0.0953,1.140813 -0.60544,3.779632 -0.38904,2.012371 -0.73546,3.745995 -0.76982,3.8525 -0.0617,0.191046 -0.11304,0.193489 -3.83083,0.182108 -2.07259,-0.0063 -4.02802,-0.048 -4.34539,-0.09257 z"
       style="fill:#000000;fill-opacity:0.50196078;stroke-width:0.09538467;" /></g></g></svg>
