<svg fill="#861367" xmlns="http://www.w3.org/2000/svg" xmlns:xlink="http://www.w3.org/1999/xlink" version="1.1" x="0px" y="0px" viewBox="0 0 30 23.557" enable-background="new 0 0 30 23.557" xml:space="preserve"><rect x="9.055" y="1.499" width="0.902" height="0.902"></rect><rect x="10.859" y="1.499" width="0.904" height="0.902"></rect><rect x="12.666" y="1.499" width="0.902" height="0.902"></rect><polygon points="12.068,12.507 11.186,11.62 12.068,10.736 11.432,10.098 9.908,11.62 11.432,13.143 "></polygon><polygon points="18.568,13.143 20.092,11.62 18.568,10.098 17.932,10.736 18.814,11.62 17.932,12.507 "></polygon><rect x="11.148" y="6.366" width="7.703" height="0.903"></rect><rect x="13.716" y="4.803" width="2.568" height="0.902"></rect><path d="M9.837,20.081h4.106v-4.107H9.837V20.081z M10.74,16.876h2.302v2.303H10.74V16.876z"></path><rect x="9.837" y="20.844" width="4.106" height="0.902"></rect><path d="M16.057,20.081h4.106v-4.107h-4.106V20.081z M16.959,16.876h2.301v2.303h-2.301V16.876z"></path><rect x="16.057" y="20.844" width="4.106" height="0.902"></rect><rect x="1.798" y="6.596" width="0.903" height="0.903"></rect><rect x="3.423" y="6.596" width="0.903" height="0.903"></rect><rect x="5.048" y="6.596" width="0.903" height="0.903"></rect><rect x="24.049" y="6.596" width="0.902" height="0.903"></rect><rect x="25.674" y="6.596" width="0.903" height="0.903"></rect><rect x="27.299" y="6.596" width="0.903" height="0.903"></rect><path d="M23.152,5.017V3.899V2.995V0H6.848v2.995v0.903v1.118H0v3.157v0.902v12.481h6.848v1.998h16.307v-1.998H30V9.076V8.174V5.017  H23.152z M7.75,0.903h14.501v2.093H7.75V0.903z M7.75,3.899h14.501v1.118v3.157H7.75V5.017V3.899z M22.251,14.165H7.75V9.076h14.501  V14.165z M0.902,5.921h5.945v2.253H0.902V5.921z M0.902,20.653V9.076h5.945v5.991v5.586H0.902z M22.251,22.653H7.75v-1.096v-6.49  h14.501v6.49V22.653z M29.098,20.653h-5.943v-5.586V9.076h5.943V20.653z M23.152,8.174V5.921h5.943v2.253H23.152z"></path></svg>