<?xml version="1.0" encoding="UTF-8" standalone="no"?>
<!-- Created with Inkscape (http://www.inkscape.org/) -->

<svg
   xmlns:dc="http://purl.org/dc/elements/1.1/"
   xmlns:cc="http://creativecommons.org/ns#"
   xmlns:rdf="http://www.w3.org/1999/02/22-rdf-syntax-ns#"
   xmlns:svg="http://www.w3.org/2000/svg"
   xmlns="http://www.w3.org/2000/svg"
   xmlns:sodipodi="http://sodipodi.sourceforge.net/DTD/sodipodi-0.dtd"
   xmlns:inkscape="http://www.inkscape.org/namespaces/inkscape"
   width="65.5mm"
   height="59.900002mm"
   viewBox="0 0 65.5 59.900002"
   version="1.1"
   id="svg874"
   inkscape:version="0.92.3 (2405546, 2018-03-11)"
   sodipodi:docname="cms2.svg">
  <defs
     id="defs868" />
  <sodipodi:namedview
     id="base"
     pagecolor="#ffffff"
     bordercolor="#666666"
     borderopacity="1.0"
     inkscape:pageopacity="0.0"
     inkscape:pageshadow="2"
     inkscape:zoom="0.98994949"
     inkscape:cx="8.176034"
     inkscape:cy="72.489966"
     inkscape:document-units="mm"
     inkscape:current-layer="layer1"
     showgrid="false"
     fit-margin-top="0"
     fit-margin-left="0"
     fit-margin-right="0"
     fit-margin-bottom="0"
     inkscape:window-width="1366"
     inkscape:window-height="708"
     inkscape:window-x="0"
     inkscape:window-y="0"
     inkscape:window-maximized="1" />
  <metadata
     id="metadata871">
    <rdf:RDF>
      <cc:Work
         rdf:about="">
        <dc:format>image/svg+xml</dc:format>
        <dc:type
           rdf:resource="http://purl.org/dc/dcmitype/StillImage" />
        <dc:title></dc:title>
      </cc:Work>
    </rdf:RDF>
  </metadata>
  <g
     inkscape:label="Layer 1"
     inkscape:groupmode="layer"
     id="layer1"
     transform="translate(0.2,-2.5)">
    <g
       id="g1536"
       transform="matrix(0.75013199,0,0,0.75013199,8.1332036,8.1082168)">
      <g
         id="g24"
         style="fill:#0a2346">
        <path
           inkscape:connector-curvature="0"
           d="M -0.2,2.5 V 62.4 H 65.3 V 2.5 Z m 64,1.5 v 6.2 H 1.3 V 4 Z M 1.3,61 V 11.7 H 63.8 V 61 Z"
           id="path2" />
        <rect
           x="53.099998"
           y="6.4000001"
           width="1.5"
           height="1.5"
           id="rect4" />
        <rect
           x="56.900002"
           y="6.4000001"
           width="1.5"
           height="1.5"
           id="rect6" />
        <rect
           x="49.299999"
           y="6.4000001"
           width="1.5"
           height="1.5"
           id="rect8" />
        <rect
           x="6.0999999"
           y="6.4000001"
           width="38.5"
           height="1.5"
           id="rect10" />
        <path
           inkscape:connector-curvature="0"
           d="M 45.9,46.1 44,43.3 c 0.6,-1.1 1.1,-2.3 1.4,-3.5 l 3.3,-0.6 V 33.9 L 45.4,33.3 C 45.1,32.1 44.6,30.9 43.9,29.8 L 45.8,27 42,23.2 39.2,25.1 C 38.1,24.5 36.9,24 35.7,23.7 l -0.6,-3.3 h -5.3 l -0.6,3.3 C 28,24 26.8,24.5 25.7,25.2 l -2.8,-1.9 -3.8,3.8 1.9,2.8 c -0.6,1.1 -1.1,2.3 -1.4,3.5 L 16.3,34 v 5.3 l 3.3,0.6 c 0.3,1.2 0.8,2.4 1.5,3.5 l -1.9,2.8 3.8,3.8 2.8,-1.9 c 1.1,0.7 2.3,1.1 3.5,1.4 l 0.6,3.3 h 5.3 l 0.6,-3.3 C 37,49.2 38.2,48.7 39.3,48 l 2.8,1.9 z m -6.5,0.1 -0.4,0.3 c -1.2,0.8 -2.5,1.3 -3.9,1.6 L 34.6,48.2 34,51.3 H 31.2 L 30.6,48.2 30.1,48.1 C 28.7,47.8 27.4,47.3 26.2,46.5 L 25.8,46.2 23.2,48 21.2,46 23,43.4 22.6,43 C 21.8,41.8 21.3,40.5 21,39.1 l -0.1,-0.5 -3.1,-0.5 v -2.8 l 3.1,-0.6 0.1,-0.5 c 0.3,-1.4 0.8,-2.7 1.6,-3.9 l 0.3,-0.4 -1.9,-2.7 2,-2 2.6,1.8 0.4,-0.3 c 1.2,-0.8 2.5,-1.3 3.9,-1.6 l 0.5,-0.1 0.5,-3.1 h 2.8 l 0.6,3.1 0.5,0.1 c 1.4,0.3 2.7,0.8 3.9,1.6 l 0.4,0.3 2.6,-1.8 2,2 -1.8,2.6 0.3,0.4 c 0.8,1.2 1.3,2.5 1.6,3.9 l 0.1,0.5 3.1,0.5 v 2.8 L 43.9,38.5 44,39 c -0.3,1.4 -0.8,2.7 -1.6,3.9 l -0.3,0.4 1.8,2.6 -2,2 z"
           id="path12" />
        <path
           inkscape:connector-curvature="0"
           d="m 32.5,29.4 c -3.9,0 -7.1,3.2 -7.1,7.2 0,3.9 3.2,7.1 7.1,7.1 v 0 c 3.9,0 7.1,-3.2 7.1,-7.2 0,-3.9 -3.2,-7.1 -7.1,-7.1 z m 0,12.8 V 43 42.2 c -3.1,0 -5.7,-2.5 -5.7,-5.6 0,-3.1 2.5,-5.7 5.6,-5.7 3.1,0 5.6,2.5 5.6,5.6 0.2,3.1 -2.4,5.7 -5.5,5.7 z"
           id="path14" />
        <polygon
           points="9.8,16.6 9.8,26.9 11.3,26.9 11.3,18.1 23.5,18.1 23.5,16.6 "
           id="polygon16" />
        <polygon
           points="23.5,56.6 23.5,55.1 11.3,55.1 11.3,46.2 9.8,46.2 9.8,56.6 "
           id="polygon18" />
        <polygon
           points="55.2,56.6 55.2,46.2 53.7,46.2 53.7,55.1 41.5,55.1 41.5,56.6 "
           id="polygon20" />
        <polygon
           points="55.2,26.9 55.2,16.6 41.5,16.6 41.5,18.1 53.7,18.1 53.7,26.9 "
           id="polygon22" />
      </g>
    </g>
  </g>
</svg>
