<svg fill="#861367" xmlns="http://www.w3.org/2000/svg" xmlns:xlink="http://www.w3.org/1999/xlink" version="1.1" x="0px" y="0px" viewBox="0 0 100 100" enable-background="new 0 0 100 100" xml:space="preserve"><path d="M33.001,40.951l8.711-8.711c-0.151-0.245-0.31-0.484-0.475-0.718l-8.926,8.925L33.001,40.951z"></path><path d="M31.524,39.873l9.129-9.13c-0.178-0.219-0.362-0.43-0.553-0.638l-9.264,9.265L31.524,39.873z"></path><path d="M30.144,36.145l7.896-7.895c-0.23-0.169-0.465-0.333-0.705-0.488l-7.19,7.19V36.145z"></path><path d="M30.144,33.59l6.342-6.34c-0.259-0.143-0.522-0.276-0.79-0.403l-5.552,5.551V33.59z"></path><path d="M30.144,31.036l4.601-4.601c-0.29-0.112-0.586-0.212-0.885-0.306l-3.716,3.715V31.036z"></path><path d="M30.144,28.481l2.644-2.644c-0.33-0.075-0.666-0.135-1.004-0.187l-1.64,1.64V28.481z"></path><path d="M30.144,38.699l9.283-9.283c-0.204-0.195-0.411-0.385-0.626-0.567l-8.657,8.657V38.699z"></path><path d="M30.554,25.517c-0.137-0.009-0.273-0.014-0.41-0.019v0.43L30.554,25.517z"></path><path d="M34.478,42.03l8.116-8.116c-0.121-0.273-0.25-0.542-0.388-0.805l-8.418,8.418L34.478,42.03z"></path><path d="M37.432,44.188l6.27-6.27c-0.043-0.347-0.095-0.691-0.162-1.03l-6.796,6.796L37.432,44.188z"></path><path d="M35.954,43.108l7.318-7.317c-0.086-0.306-0.18-0.608-0.286-0.905l-7.721,7.721L35.954,43.108z"></path><path d="M40.385,46.347l2.905-2.906c0.14-0.498,0.252-1.008,0.336-1.526l-3.929,3.929L40.385,46.347z"></path><path d="M38.908,45.268l4.88-4.88c0.013-0.246,0.021-0.493,0.021-0.744c0-0.154-0.006-0.306-0.011-0.459l-5.579,5.58L38.908,45.268z  "></path><path d="M41.597,47.231c0.332-0.521,0.631-1.063,0.894-1.627l-1.317,1.317L41.597,47.231z"></path><g><path d="M87.743,82.641H12.257c-2.634,0-4.776-2.143-4.776-4.776V22.137c0-2.634,2.143-4.777,4.776-4.777h75.486   c2.634,0,4.776,2.144,4.776,4.777v55.728C92.52,80.498,90.377,82.641,87.743,82.641z M12.257,19.271   c-1.58,0-2.866,1.285-2.866,2.866v55.728c0,1.58,1.286,2.866,2.866,2.866h75.486c1.58,0,2.866-1.286,2.866-2.866V22.137   c0-1.581-1.286-2.866-2.866-2.866H12.257z"></path></g><rect x="56.163" y="36.164" width="3.667" height="12.001"></rect><rect x="61.853" y="37.165" width="3.666" height="11.001"></rect><rect x="67.541" y="39.166" width="3.666" height="9"></rect><rect x="73.23" y="34.163" width="3.666" height="14.002"></rect><rect x="78.919" y="34.163" width="3.666" height="14.002"></rect><polygon points="82.402,56.386 63.15,65.845 56.143,61.604 43.505,67.348 23.03,69.155 14.967,74.886 31.206,74.886 48.127,74.886   65.423,74.886 71.29,74.886 82.344,74.886 "></polygon><path d="M29.625,53.768c-7.809,0-14.162-6.352-14.162-14.162c0-7.631,6.067-13.869,13.63-14.149v14.01h0.007l11.837,8.649  c-0.001,0-0.001,0-0.001,0C38.351,51.546,34.242,53.768,29.625,53.768z"></path></svg>