<svg height='100px' width='100px'  fill="#052040" xmlns="http://www.w3.org/2000/svg" data-name="Layer 1" viewBox="0 0 64 64" x="0px" y="0px"><path d="M5.37058,62.00182H58.63034a3.01764,3.01764,0,0,0,2.95309-3.51859c-1.40812-8.22556-3.91786-22.82781-5.31635-30.98572A2.98353,2.98353,0,0,0,53.31,25.00182h-4.1283C52.94614,13.88428,43.609,1.72449,32.00026,2.002,20.29269,1.8235,11.13117,13.77486,14.81833,25.00182H10.69089A2.98192,2.98192,0,0,0,7.73483,27.493L2.4155,58.49254A3.019,3.019,0,0,0,5.37058,62.00182Zm13.94922-2,6.4873-12.4375a1.006,1.006,0,0,0-.583-1.415L7.53269,40.51305l.50976-2.98,20.19727,6.42615C29.808,45.5553,31.66333,47.36,33.808,45.7307L58.7258,53.65978l.57129,3.33069L30.063,47.68883a1.00137,1.00137,0,0,0-1.18945.49023L22.70358,60.00182Zm25.18982-26H55.35373c.12705.73663.38627,2.25754.512,3H42.23154C43.01206,36.04058,43.77927,35.03813,44.50962,34.00182Zm-3.96814,5H56.2114l2.13342,12.4375L35.52976,44.17913C36.99753,42.79271,38.75949,41.02642,40.54148,39.00182Zm18.08886,21H24.96018l5.29809-10.15235L59.59775,59.185A.94208.94208,0,0,1,58.63034,60.00182Zm-5.32031-33a.99241.99241,0,0,1,.98535.83008l.71533,4.16992H45.84152a33.27137,33.27137,0,0,0,2.61683-5Zm-21.30957-23A16.07546,16.07546,0,0,1,48.00033,20.00194c.13628,9.244-11.689,20.91061-15.33881,24.099-1.1863.91-2.14194-.96754-3.23817-1.78308C24.7585,37.76668,16.0992,28.54,16.0004,20.00185A16.01968,16.01968,0,0,1,32.00046,4.00182ZM9.70651,27.82653a.99089.99089,0,0,1,.98438-.82471h4.85059c2.12768,5.1748,6.10376,10.14148,9.63684,13.88452L8.38254,35.54253ZM7.1882,42.50225l16.29566,5.19146-6.4198,12.30811H5.37058a.98392.98392,0,0,1-.98442-1.17038Z"></path><path d="M30.15183,32.87975a2.986,2.986,0,0,0,3.6914.00488c3.39746-2.66308,10.89453-9.65332,7.14649-17.03369a10.13943,10.13943,0,0,0-10.25684-5.76953,10.01253,10.01253,0,0,0-8.73242,9.92041C22.00046,25.64342,27.10691,30.49156,30.15183,32.87975Zm.833-20.814a8.1454,8.1454,0,0,1,8.22169,4.69043c3.07617,6.05811-3.58887,12.19629-6.59766,14.5542a.99141.99141,0,0,1-1.22363-.00439c-2.22071-1.74219-7.38477-6.33008-7.38477-11.3042A8.00909,8.00909,0,0,1,30.98483,12.06578Z"></path></svg>