<svg height='100px' width='100px'  fill="#666666" xmlns="http://www.w3.org/2000/svg" xmlns:xlink="http://www.w3.org/1999/xlink" version="1.1" x="0px" y="0px" viewBox="0 0 165 165" enable-background="new 0 0 165 165" xml:space="preserve"><g><g><g><g><path d="M41.9,18.2c-1.7,0-3.1-1.4-3.1-3.1c0-1.7,1.4-3.1,3.1-3.1c1.7,0,3.1,1.4,3.1,3.1C44.9,16.8,43.6,18.2,41.9,18.2z       M41.9,14.1c-0.6,0-1.1,0.5-1.1,1.1c0,0.6,0.5,1.1,1.1,1.1c0.6,0,1.1-0.5,1.1-1.1C42.9,14.5,42.5,14.1,41.9,14.1z"></path></g></g><g><g><path d="M49.9,18.2c-1.7,0-3.1-1.4-3.1-3.1c0-1.7,1.4-3.1,3.1-3.1c1.7,0,3.1,1.4,3.1,3.1C53,16.8,51.6,18.2,49.9,18.2z       M49.9,14.1c-0.6,0-1.1,0.5-1.1,1.1c0,0.6,0.5,1.1,1.1,1.1s1.1-0.5,1.1-1.1C51,14.5,50.5,14.1,49.9,14.1z"></path></g></g><g><g><path d="M58,18.2c-1.7,0-3.1-1.4-3.1-3.1c0-1.7,1.4-3.1,3.1-3.1c1.7,0,3.1,1.4,3.1,3.1C61,16.8,59.7,18.2,58,18.2z M58,14.1      c-0.6,0-1.1,0.5-1.1,1.1c0,0.6,0.5,1.1,1.1,1.1c0.6,0,1.1-0.5,1.1-1.1C59,14.5,58.6,14.1,58,14.1z"></path></g></g><g><g><path d="M123.1,18.2H66.4c-1.7,0-3.1-1.4-3.1-3.1c0-1.7,1.4-3.1,3.1-3.1h56.7c1.7,0,3.1,1.4,3.1,3.1      C126.2,16.8,124.8,18.2,123.1,18.2z M66.4,14.1c-0.6,0-1.1,0.5-1.1,1.1c0,0.6,0.5,1.1,1.1,1.1h56.7c0.6,0,1.1-0.5,1.1-1.1      c0-0.6-0.5-1.1-1.1-1.1H66.4z"></path></g></g></g><g><g><path d="M82.5,163.5c-44.7,0-81-36.3-81-81C1.5,57.2,13,33.8,33,18.4c0.4-0.3,1.1-0.3,1.4,0.2c0.3,0.4,0.3,1.1-0.2,1.4     C14.7,35,3.5,57.8,3.5,82.5c0,43.6,35.4,79,79,79c43.6,0,79-35.4,79-79c0-24.7-11.2-47.5-30.7-62.5c-0.4-0.3-0.5-1-0.2-1.4     c0.3-0.4,1-0.5,1.4-0.2c20,15.5,31.5,38.8,31.5,64.1C163.5,127.2,127.2,163.5,82.5,163.5z"></path></g></g><g><g><path d="M114.1,10c-0.1,0-0.3,0-0.4-0.1c-9.9-4.3-20.4-6.4-31.2-6.4c-10.8,0-21.4,2.2-31.2,6.4c-0.5,0.2-1.1,0-1.3-0.5     c-0.2-0.5,0-1.1,0.5-1.3c10.1-4.4,20.9-6.6,32-6.6c11.1,0,21.9,2.2,32,6.6c0.5,0.2,0.7,0.8,0.5,1.3C114.9,9.8,114.5,10,114.1,10z     "></path></g></g><g><g><path d="M82.5,163.5c-21.3,0-41.4-8.2-56.6-23.1c-0.3-0.3-0.4-0.7-0.2-1.1c0.2-0.4,0.5-0.6,0.9-0.6h111.8c0.4,0,0.8,0.2,0.9,0.6     c0.2,0.4,0.1,0.8-0.2,1.1c-13.5,13.2-31.2,21.3-49.8,22.8C87.1,163.4,84.8,163.5,82.5,163.5z M29.1,140.7     c14.6,13.4,33.5,20.8,53.4,20.8c2.2,0,4.5-0.1,6.6-0.3c17.4-1.4,33.9-8.7,46.8-20.5H29.1z"></path></g></g><g><g><g><g><path d="M79.2,147.8H55c-0.6,0-1-0.4-1-1c0-0.6,0.4-1,1-1h24.2c0.6,0,1,0.4,1,1C80.2,147.3,79.7,147.8,79.2,147.8z"></path></g></g><g><g><path d="M87.1,147.8h-4c-0.6,0-1-0.4-1-1c0-0.6,0.4-1,1-1h4c0.6,0,1,0.4,1,1C88.1,147.3,87.6,147.8,87.1,147.8z"></path></g></g><g><g><path d="M93.1,147.8h-2.6c-0.6,0-1-0.4-1-1c0-0.6,0.4-1,1-1h2.6c0.6,0,1,0.4,1,1C94.1,147.3,93.7,147.8,93.1,147.8z"></path></g></g></g><g><g><g><path d="M110,152.7H85.8c-0.6,0-1-0.4-1-1c0-0.6,0.4-1,1-1H110c0.6,0,1,0.4,1,1C111,152.2,110.6,152.7,110,152.7z"></path></g></g><g><g><path d="M81.9,152.7h-4c-0.6,0-1-0.4-1-1c0-0.6,0.4-1,1-1h4c0.6,0,1,0.4,1,1C82.9,152.2,82.5,152.7,81.9,152.7z"></path></g></g><g><g><path d="M74.5,152.7h-2.6c-0.6,0-1-0.4-1-1c0-0.6,0.4-1,1-1h2.6c0.6,0,1,0.4,1,1C75.5,152.2,75.1,152.7,74.5,152.7z"></path></g></g></g></g><g><g><path d="M131.4,140.7H33.6c-0.6,0-1-0.4-1-1V16.3c0-4.6,3.7-8.3,8.3-8.3h83.2c4.6,0,8.3,3.7,8.3,8.3v123.4     C132.4,140.3,131.9,140.7,131.4,140.7z M34.6,138.7h95.8V16.3c0-3.5-2.8-6.3-6.3-6.3H40.9c-3.5,0-6.3,2.8-6.3,6.3V138.7z"></path></g></g><g><g><path d="M131.4,22.2H33.6c-0.6,0-1-0.4-1-1v-5c0-4.6,3.7-8.3,8.3-8.3h83.2c4.6,0,8.3,3.7,8.3,8.3v5     C132.4,21.8,131.9,22.2,131.4,22.2z M34.6,20.2h95.8v-4c0-3.5-2.8-6.3-6.3-6.3H40.9c-3.5,0-6.3,2.8-6.3,6.3V20.2z"></path></g></g><g><g><path d="M113.2,105.8c-0.6,0-1-0.4-1-1V81.3H96.7c-0.6,0-1-0.4-1-1c0-0.6,0.4-1,1-1h16.5c0.6,0,1,0.4,1,1v24.5     C114.2,105.4,113.7,105.8,113.2,105.8z"></path></g></g><g><g><path d="M82.5,67.3c-0.6,0-1-0.4-1-1V53c0-0.6,0.4-1,1-1c0.6,0,1,0.4,1,1v13.3C83.5,66.8,83.1,67.3,82.5,67.3z"></path></g></g><g><g><path d="M51.8,105.8c-0.6,0-1-0.4-1-1V80.3c0-0.6,0.4-1,1-1h16.6c0.6,0,1,0.4,1,1c0,0.6-0.4,1-1,1H52.8v23.5     C52.8,105.4,52.4,105.8,51.8,105.8z"></path></g></g><g><g><path d="M82.5,95.5c-8.3,0-15.1-6.8-15.1-15.1c0-8.3,6.8-15.1,15-15.1c8.4,0,15.1,6.8,15.2,15C97.7,88.7,90.9,95.5,82.5,95.5z      M82.5,67.3c-7.2,0-13.1,5.9-13.1,13.1c0,7.3,5.9,13.2,13.1,13.2c7.2,0,13.1-5.9,13.1-13.1C95.6,73.1,89.8,67.3,82.5,67.3z"></path></g></g><g><g><g><path d="M83.9,90.7h-2.7c-0.4,0-0.8-0.2-0.9-0.6l-0.7-1.5c-0.3-0.1-0.5-0.2-0.8-0.3l-1.5,0.6c-0.4,0.1-0.8,0.1-1.1-0.2l-1.9-1.9      c-0.3-0.3-0.4-0.7-0.2-1.1l0.6-1.5c-0.1-0.3-0.2-0.5-0.3-0.8l-1.5-0.7c-0.4-0.2-0.6-0.5-0.6-0.9V79c0-0.4,0.2-0.8,0.6-0.9      l1.5-0.7c0.1-0.3,0.2-0.5,0.3-0.8l-0.6-1.5c-0.1-0.4-0.1-0.8,0.2-1.1l1.9-1.9c0.3-0.3,0.7-0.4,1.1-0.2l1.5,0.6      c0.3-0.1,0.5-0.2,0.8-0.3l0.7-1.5c0.2-0.4,0.5-0.6,0.9-0.6h2.7c0.4,0,0.8,0.2,0.9,0.6l0.7,1.5c0.3,0.1,0.5,0.2,0.8,0.3l1.5-0.6      c0.4-0.1,0.8-0.1,1.1,0.2l1.9,1.9c0.3,0.3,0.4,0.7,0.2,1.1l-0.6,1.5c0.1,0.3,0.2,0.5,0.3,0.8l1.5,0.7c0.4,0.2,0.6,0.5,0.6,0.9      v2.7c0,0.4-0.2,0.8-0.6,0.9l-1.5,0.7c-0.1,0.3-0.2,0.5-0.3,0.8l0.6,1.5c0.1,0.4,0.1,0.8-0.2,1.1l-1.9,1.9      c-0.3,0.3-0.7,0.4-1.1,0.2l-1.5-0.6c-0.2,0.1-0.5,0.2-0.8,0.3l-0.7,1.5C84.7,90.4,84.3,90.7,83.9,90.7z M81.8,88.7h1.4l0.6-1.3      c0.1-0.3,0.3-0.5,0.6-0.5c0.5-0.1,0.9-0.3,1.3-0.5c0.3-0.1,0.6-0.2,0.8-0.1l1.3,0.5l1-1l-0.5-1.3c-0.1-0.3-0.1-0.6,0.1-0.8      c0.2-0.4,0.4-0.8,0.5-1.3c0.1-0.3,0.3-0.5,0.6-0.6l1.3-0.6v-1.4l-1.3-0.6c-0.3-0.1-0.5-0.3-0.5-0.6c-0.1-0.4-0.3-0.9-0.5-1.3      c-0.1-0.3-0.2-0.6-0.1-0.8l0.5-1.3l-1-1l-1.3,0.5c-0.3,0.1-0.6,0.1-0.8-0.1c-0.4-0.2-0.8-0.4-1.3-0.5c-0.3-0.1-0.5-0.3-0.6-0.5      l-0.6-1.3h-1.4l-0.6,1.3c-0.1,0.3-0.3,0.5-0.6,0.5c-0.4,0.1-0.9,0.3-1.3,0.5c-0.3,0.1-0.6,0.2-0.8,0.1L77.2,74l-1,1l0.5,1.3      c0.1,0.3,0.1,0.6-0.1,0.8c-0.2,0.4-0.4,0.8-0.5,1.3c-0.1,0.3-0.3,0.5-0.5,0.6l-1.3,0.6v1.4l1.3,0.6c0.3,0.1,0.5,0.4,0.6,0.6      c0.1,0.4,0.3,0.8,0.5,1.3c0.1,0.3,0.2,0.6,0.1,0.8l-0.5,1.3l1,1l1.3-0.5c0.3-0.1,0.6-0.1,0.8,0.1c0.4,0.2,0.8,0.4,1.3,0.5      c0.3,0.1,0.5,0.3,0.6,0.5L81.8,88.7z M82.6,84.5c-2.2,0-4.1-1.8-4.1-4.1c0-2.2,1.8-4.1,4.1-4.1c2.2,0,4.1,1.8,4.1,4.1      C86.6,82.6,84.8,84.5,82.6,84.5z M82.6,78.3c-1.1,0-2.1,0.9-2.1,2.1c0,1.1,0.9,2.1,2.1,2.1c1.1,0,2.1-0.9,2.1-2.1      C84.6,79.2,83.7,78.3,82.6,78.3z"></path></g></g></g><g><g><path d="M62.9,128H40.7c-0.6,0-1-0.4-1-1v-22.2c0-0.6,0.4-1,1-1h22.2c0.6,0,1,0.4,1,1V127C63.9,127.6,63.5,128,62.9,128z      M41.7,126h20.2v-20.2H41.7V126z"></path></g></g><g><g><path d="M124.3,128h-22.2c-0.6,0-1-0.4-1-1v-22.2c0-0.6,0.4-1,1-1h22.2c0.6,0,1,0.4,1,1V127C125.3,127.6,124.8,128,124.3,128z      M103.1,126h20.2v-20.2h-20.2V126z"></path></g></g><g><g><path d="M113.2,123.4c-0.3,0-0.5-0.1-0.7-0.3l-6.5-6.5c-0.4-0.4-0.4-1,0-1.4l6.5-6.5c0.4-0.4,1-0.4,1.4,0l6.5,6.5     c0.4,0.4,0.4,1,0,1.4l-6.5,6.5C113.7,123.3,113.4,123.4,113.2,123.4z M108.1,115.9l5.1,5.1l5.1-5.1l-5.1-5.1L108.1,115.9z"></path></g></g><g><g><path d="M101.9,54H63.1c-2.4,0-4.3-1.9-4.3-4.3V31.9c0-2.4,1.9-4.3,4.3-4.3h38.8c2.4,0,4.3,1.9,4.3,4.3v17.8     C106.2,52.1,104.3,54,101.9,54z M63.1,29.6c-1.3,0-2.3,1-2.3,2.3v17.8c0,1.3,1,2.3,2.3,2.3h38.8c1.3,0,2.3-1,2.3-2.3V31.9     c0-1.3-1-2.3-2.3-2.3H63.1z"></path></g></g><g><g><g><path d="M98.5,35.4H66.5c-0.6,0-1-0.4-1-1s0.4-1,1-1h31.9c0.6,0,1,0.4,1,1S99,35.4,98.5,35.4z"></path></g></g><g><g><path d="M98.5,41.8H66.5c-0.6,0-1-0.4-1-1c0-0.6,0.4-1,1-1h31.9c0.6,0,1,0.4,1,1C99.5,41.3,99,41.8,98.5,41.8z"></path></g></g><g><g><path d="M98.5,48.2H66.5c-0.6,0-1-0.4-1-1c0-0.6,0.4-1,1-1h31.9c0.6,0,1,0.4,1,1C99.5,47.7,99,48.2,98.5,48.2z"></path></g></g></g></g></svg>