<?xml version="1.0" encoding="utf-8"?>
<!-- Generator: Adobe Illustrator 19.0.0, SVG Export Plug-In . SVG Version: 6.00 Build 0)  -->
<svg version="1.1" id="Layer_1" xmlns="http://www.w3.org/2000/svg" xmlns:xlink="http://www.w3.org/1999/xlink" x="0px" y="0px"
	 viewBox="0 0 2065 1717" style="enable-background:new 0 0 2065 1717;" xml:space="preserve">
<style type="text/css">
	.st0{fill:#165180;}
</style>
<g id="XMLID_12_">
	<g>
		<path id="XMLID_6_" class="st0" d="M313,251c0,30-24.3,54.3-54.3,54.3c-30,0-54.3-24.3-54.3-54.3c0-30,24.3-54.3,54.3-54.3
			C288.7,196.6,313,221,313,251"/>
		<path id="XMLID_5_" class="st0" d="M471.7,251c0,30-24.3,54.3-54.3,54.3c-30,0-54.3-24.3-54.3-54.3c0-30,24.3-54.3,54.3-54.3
			C447.4,196.6,471.7,221,471.7,251"/>
		<path id="XMLID_4_" class="st0" d="M628.2,251c0,30-24.3,54.3-54.3,54.3S519.5,281,519.5,251c0-30,24.3-54.3,54.3-54.3
			S628.2,221,628.2,251"/>
		<path class="st0" d="M1973.7,1H91.3C41.3,1,0,42.3,0,92.3v1532.4c0,50,41.3,91.3,91.3,91.3h1882.4c50,0,91.3-41.3,91.3-91.3V92.3
			C2065,42.3,2023.7,1,1973.7,1L1973.7,1z M1962.8,103.2v295.6H102.2V103.2H1962.8z M102.2,1616V500.9h1860.6V1616H102.2z"/>
	</g>
	<g id="XMLID_13_">
		<path id="XMLID_16_" class="st0" d="M1408.6,880.9h-193.8V687.2c0-15.5-9.9-29.3-24.5-34.5c-105.6-37.2-216.6-34.8-315.7,0.1
			c-14.6,5.1-24.4,18.9-24.4,34.4v193.7H656.4c-15.5,0-29.3,9.9-34.5,24.5c-37.2,105.6-34.8,216.6,0.1,315.7
			c5.1,14.6,18.9,24.4,34.4,24.4h193.7v193.8c0,15.5,9.9,29.3,24.5,34.5c105.6,37.2,216.6,34.8,315.7-0.1
			c14.6-5.1,24.4-18.9,24.4-34.4v-193.8h193.8c15.5,0,29.3-9.9,34.5-24.5c37.2-105.6,34.8-216.6-0.1-315.7
			C1437.9,890.7,1424,880.9,1408.6,880.9z M850.1,1136.2v36.5H711.7c-17.4,0-32.3-12.3-35.8-29.3c-10.9-53-10.9-107.3,0-160.3
			c3.5-17,18.4-29.3,35.8-29.3h320.8v-72.9h-72.9c-20.1,0-36.5-16.3-36.5-36.5v-102c0-17.4,12.3-32.3,29.3-35.8
			c26.3-5.4,53.2-8.1,80.3-8.1c27,0,53.7,2.7,79.9,8c17,3.5,29.3,18.4,29.3,35.8v247.9c0,20.1-16.3,36.5-36.5,36.5H959.5
			C899.1,1026.8,850.1,1075.8,850.1,1136.2L850.1,1136.2z M1381.9,1172.6h-349.5v72.9h72.9c20.1,0,36.5,16.3,36.5,36.5v102
			c0,17.4-12.3,32.3-29.3,35.8c-26.3,5.4-53.2,8.1-80.3,8.1c-27,0-53.7-2.7-79.9-8c-17-3.5-29.3-18.4-29.3-35.8v-247.9
			c0-20.2,16.3-36.5,36.5-36.5l145.8,0c60.4,0,109.4-49,109.4-109.4l0,0c0-20.1,16.3-36.5,36.5-36.5h102.1
			c17.4,0,32.3,12.3,35.8,29.3C1401.9,1045.9,1397.2,1139.4,1381.9,1172.6L1381.9,1172.6z"/>
		<path id="XMLID_8_" class="st0" d="M1050.6,789.8c0,20.1-16.3,36.5-36.5,36.5s-36.5-16.3-36.5-36.5s16.3-36.5,36.5-36.5
			S1050.6,769.6,1050.6,789.8"/>
		<path id="XMLID_7_" class="st0" d="M1087.1,1336.7c0,20.1-16.3,36.5-36.5,36.5c-20.1,0-36.5-16.3-36.5-36.5
			c0-20.1,16.3-36.5,36.5-36.5C1070.8,1300.3,1087.1,1316.6,1087.1,1336.7"/>
	</g>
</g>
</svg>
