<?xml version="1.0" encoding="utf-8"?>
<!-- Generator: Adobe Illustrator 19.0.0, SVG Export Plug-In . SVG Version: 6.00 Build 0)  -->
<svg version="1.1" id="Layer_1" xmlns="http://www.w3.org/2000/svg" xmlns:xlink="http://www.w3.org/1999/xlink" x="0px" y="0px"
	 viewBox="-952 548 1713.4 1713" style="enable-background:new -952 548 1713.4 1713;" xml:space="preserve">
<style type="text/css">
	.st0{fill:#165180;}
</style>
<g>
	<path class="st0" d="M-761.7,548C-866,548-952,634-952,738.3v1332.3c0,104.3,86,190.3,190.3,190.3H570.6
		c104.3,0,190.3-86,190.3-190.3V738.3C761,634,675,548,570.6,548L-761.7,548z M-761.7,662.2H570.6c43.2,0,76.1,33,76.1,76.1v1332.3
		c0,43.2-33,76.1-76.1,76.1H-761.7c-43.2,0-76.1-33-76.1-76.1V738.3C-837.8,695.2-804.8,662.2-761.7,662.2z M-0.4,719.3
		c-15.3,0-29.6,6.1-40.4,16.7c-10.9,10.5-16.7,25.2-16.7,40.4v532.9c0,15.3,6.1,29.6,16.7,40.4c10.9,10.5,25.2,16.7,40.4,16.7h532.9
		c15.3,0,29.6-6.1,40.4-16.7c10.5-10.9,16.7-25.2,16.7-40.4V776.4c0-14.3-5.1-27.9-14.6-38.4c-9.5-10.5-22.4-17.3-36.7-18.7
		c-2,0-4.1,0-6.1,0H-0.4z M56.7,833.5h418.7v418.7H56.7V833.5z M-723.6,1442.5c-15.3,0-29.6,6.1-40.4,16.7
		c-10.5,10.5-16.7,25.2-16.7,40.4v532.9c0,15.3,6.1,29.6,16.7,40.4c10.9,10.9,25.2,16.7,40.4,16.7h532.9c15.3,0,29.6-6.1,40.4-16.7
		c10.9-10.5,16.7-25.2,16.7-40.4v-532.9c0-15.3-6.1-29.6-16.7-40.4c-10.9-10.9-25.2-16.7-40.4-16.7H-723.6L-723.6,1442.5z
		 M-0.4,1442.5c-15.3,0-29.6,6.1-40.4,16.7c-10.9,10.5-16.7,25.2-16.7,40.4v532.9c0,15.3,6.1,29.6,16.7,40.4
		c10.9,10.9,25.2,16.7,40.4,16.7h532.9c15.3,0,29.6-6.1,40.4-16.7c10.5-10.5,16.7-25.2,16.7-40.4v-532.9c0-15.3-6.1-29.6-16.7-40.4
		c-10.9-10.9-25.2-16.7-40.4-16.7H-0.4L-0.4,1442.5z M-666.5,1556.7h418.7v418.7h-418.7V1556.7z M56.7,1556.7h418.7v418.7H56.7
		V1556.7z"/>
</g>
</svg>
