<?xml version="1.0" encoding="UTF-8"?>
<svg width="100px" height="97px" viewBox="0 0 100 97" version="1.1" xmlns="http://www.w3.org/2000/svg" xmlns:xlink="http://www.w3.org/1999/xlink">
    <!-- Generator: Sketch 48.2 (47327) - http://www.bohemiancoding.com/sketch -->
    <title>rails</title>
    <desc>Created with Sketch.</desc>
    <defs></defs>
    <g id="Page-1" stroke="none" stroke-width="1" fill="none" fill-rule="evenodd">
        <g id="rails" fill="#B72922">
            <path d="M86.556,9.818 C76.807,5.007 66.822,4.518 56.598,8.131 C47.19,11.457 39.685,17.408 34.107,25.512 C24.667,39.228 17.811,54.194 13.966,70.45 C12,78.772 10.725,86.754 11.068,95.347 C11.096,96.045 11.199,97 11.268,97 L59.482,97 C59.345,97 59.253,96.712 59.134,96.407 C56.598,89.932 54.589,83.516 53.201,76.702 C51.206,66.918 50.162,57.161 52.222,47.286 C55.106,33.457 62.989,23.584 76.277,18.413 C83.804,15.481 90.947,16.369 97.214,21.868 C97.272,21.919 97.389,21.916 97.542,21.941 L99.592,18.854 C95.646,15.096 91.31,12.164 86.556,9.818 Z M11.067,74.154 L1.617,73.44 L0.547,82.586 L9.438,83.654 L11.067,74.154 Z M19.069,46.135 C16.18,45.006 13.489,43.952 10.706,42.862 C9.778,45.5 8.912,47.955 8.002,50.537 C10.921,51.473 13.67,52.354 16.526,53.268 L19.069,46.135 Z M58.542,88.993 C61.397,89.205 64.258,89.353 67.409,89.536 C66.264,87.157 65.249,85.006 64.183,82.879 C64.067,82.648 63.673,82.425 63.406,82.421 C60.984,82.386 58.559,82.4 55.985,82.4 C56.564,84.5 57.069,86.435 57.659,88.345 C57.747,88.633 58.222,88.969 58.542,88.993 Z M33.243,22.889 L26.89,18.682 C25.187,20.585 23.545,22.42 21.81,24.357 L28.342,28.747 L33.243,22.889 Z M53.477,65.515 C53.468,65.772 53.699,66.18 53.923,66.282 C56.212,67.31 58.524,68.29 61.042,69.375 C60.937,67.385 60.866,65.721 60.748,64.061 C60.726,63.763 60.585,63.332 60.364,63.209 C58.263,62.045 56.133,60.935 53.802,59.699 C53.674,61.828 53.545,63.669 53.477,65.515 Z M51.595,7.871 L47.245,2.935 L41.256,6.048 L45.612,11.355 L51.595,7.871 Z M54.323,47.148 C54.194,47.448 54.366,48.08 54.621,48.311 C56.358,49.878 58.155,51.377 60.153,53.088 C60.611,51.171 61.042,49.463 61.408,47.743 C61.473,47.436 61.383,46.93 61.17,46.76 C59.615,45.506 58.011,44.314 56.348,43.044 C55.617,44.495 54.909,45.795 54.323,47.148 Z M64.267,5.276 C66.487,5.338 68.71,5.31 71.055,5.31 C70.821,3.678 70.71,2.44 70.431,1.243 C70.348,0.888 69.81,0.412 69.449,0.383 C67.224,0.202 64.989,0.133 62.539,0.016 C62.866,1.663 63.115,3.115 63.467,4.542 C63.543,4.846 63.985,5.27 64.267,5.276 Z M66.971,33.77 C67.084,33.558 67.113,33.172 66.994,32.986 C65.902,31.28 64.77,29.599 63.596,27.832 L59.793,31.323 L65.052,37.15 C65.757,35.92 66.389,34.858 66.971,33.77 Z M71.071,22.168 C71.879,23.667 72.611,25.026 73.342,26.387 C76.895,24.441 77.236,23.734 75.977,20.929 L71.071,22.168 Z M88.073,9.171 C89.552,10.083 91.113,10.859 92.7,11.715 L93.762,10.061 L87.841,5.727 C87.759,6.608 87.635,7.226 87.667,7.833 C87.692,8.298 87.771,8.984 88.073,9.171 Z M92,20.868 C89,20.517 88,20.17 86,19.81 L86,22.524 C88,22.697 89,22.863 92,23.037 L92,20.868 Z" id="Shape"></path>
        </g>
    </g>
</svg>