<?xml version="1.0" encoding="UTF-8"?>
<svg width="42px" height="34px" viewBox="0 0 42 34" version="1.1" xmlns="http://www.w3.org/2000/svg" xmlns:xlink="http://www.w3.org/1999/xlink">
    <!-- Generator: Sketch 48.2 (47327) - http://www.bohemiancoding.com/sketch -->
    <title>ruby</title>
    <desc>Created with Sketch.</desc>
    <defs></defs>
    <g id="Page-1" stroke="none" stroke-width="1" fill="none" fill-rule="evenodd">
        <g id="ruby" fill="#B72922" fill-rule="nonzero">
            <path d="M7.181641,0.2334 L10.441406,9.4385 L20.123047,0.3799 L19.964844,0.2334 L7.181641,0.2334 Z M22.035156,0.2334 L21.876953,0.3818 L31.558594,9.4385 L34.818359,0.2334 L22.035156,0.2334 Z M6.1171876,0.8252 L0.0898439,10.7256 L9.623047,10.7256 L6.1171876,0.8252 Z M35.880859,0.8252 L32.376953,10.7237 L41.910156,10.7237 L35.880859,0.8252 Z M21.599609,1.7608 L21.599609,10.7237 L31.175781,10.7237 L21.599609,1.7608 Z M20.398438,1.7608 L10.824219,10.7218 L20.400391,10.7218 L20.398391,1.7608 L20.398438,1.7608 Z M0.857422,11.923 L19.539062,33.5733 L9.955078,11.923 L0.857422,11.923 Z M11.267531,11.923 L20.402344,32.5558 L20.400344,11.923 L11.267531,11.923 Z M21.599609,11.923 L21.601609,32.5499 L30.732469,11.923 L21.599609,11.923 Z M32.044922,11.923 L22.376953,33.7628 L41.146484,11.923 L32.044922,11.923 Z" id="Shape"></path>
        </g>
    </g>
</svg>