<svg height='100px' width='100px'  fill="#0f203c" xmlns="http://www.w3.org/2000/svg" viewBox="0 0 64 64" x="0px" y="0px"><g data-name="02 Video Streming"><path d="M59,7H5a3.0033,3.0033,0,0,0-3,3V46a3.0033,3.0033,0,0,0,3,3H25.0969L20.813,53.644A2.0109,2.0109,0,0,0,22.2832,57H41.7168a2.0111,2.0111,0,0,0,1.47-3.3564L38.9032,49H59a3.0033,3.0033,0,0,0,3-3V10A3.0033,3.0033,0,0,0,59,7ZM5,9H59a1.0013,1.0013,0,0,1,1,1V39H4V10A1.0013,1.0013,0,0,1,5,9ZM41.7256,55,41.7168,55H22.2827l5.5352-6h8.3647ZM59,47H5a1.0013,1.0013,0,0,1-1-1V41H60v5A1.0013,1.0013,0,0,1,59,47Z"></path><path d="M30,44a2,2,0,1,0,4,0A2,2,0,1,0,30,44Z"></path><path d="M14,37H50a3.0033,3.0033,0,0,0,3-3V14a3.0033,3.0033,0,0,0-3-3H14a3.0033,3.0033,0,0,0-3,3V34A3.0033,3.0033,0,0,0,14,37Zm2-10H13V25h3Zm0-4H13V21h3Zm0,6v2H13V29Zm0-10H13V17h3ZM13,34V33h3v2H14A1.0013,1.0013,0,0,1,13,34Zm35-9h3v2H48Zm3-2H48V21h3Zm-3,6h3v2H48Zm3-10H48V17h3ZM50,35H48V33h3v1A1.0013,1.0013,0,0,1,50,35Zm1-21v1H48V13h2A1.0013,1.0013,0,0,1,51,14Zm-5-1V35H18V13ZM14,13h2v2H13V14A1.0013,1.0013,0,0,1,14,13Z"></path><path d="M28.5728,33.1567l9.8584-6.542a3.0189,3.0189,0,0,0,.0625-5.1914l-9.9209-6.58A3.0153,3.0153,0,0,0,24.04,17.42V30.58A2.9893,2.9893,0,0,0,28.5728,33.1567ZM26.04,17.42a.9633.9633,0,0,1,1.4628-.8862l9.9483,6.5947a.988.988,0,0,1-.0625,1.7813L27.53,31.4517c-.8762.3061-1.3266.0424-1.49-.8716Z"></path></g></svg>