<svg fill="#861367" xmlns="http://www.w3.org/2000/svg" viewBox="0 0 64 64" x="0px" y="0px"><title>ecommerce-technology-people-support-payment method-commerce and shopping</title><g><path d="M2,40H28v4H20v6H44V48h2v8H44V52H20V62H44V58h2a2,2,0,0,0,2-2V48a2,2,0,0,0-2-2H44V44H36V40H62V2H2ZM42,56H40v2h2v2H22V54H42Zm0-10v2H22V46ZM30,44V40h4v4ZM4,4H55.234l-5.091,8.485a1,1,0,1,0,1.714,1.03L57.566,4h1.668l-5.091,8.485a1,1,0,1,0,1.714,1.03L60,6.61V30H8.766l5.091-8.485a1,1,0,0,0-1.714-1.03L6.434,30H4.766l5.091-8.485a1,1,0,0,0-1.714-1.03L4,27.39ZM4,32H60v6H4Z"></path><path d="M52,62H62V44H52Zm2-16h5.277l-3.145,5.5a1,1,0,0,0,.372,1.364A.988.988,0,0,0,57,53a1,1,0,0,0,.869-.5L60,48.765V56H54Zm0,12h6v2H54Z"></path><path d="M18,42H2V62H18ZM16,60H4V58H16Zm0-4H4V44h6.277L7.132,49.5A1,1,0,0,0,7.5,50.868.988.988,0,0,0,8,51a1,1,0,0,0,.869-.5L12.58,44h1.7l-3.145,5.5a1,1,0,0,0,.372,1.364A.988.988,0,0,0,12,51a1,1,0,0,0,.869-.5L16,45.015Z"></path><rect x="6" y="34" width="4" height="2"></rect><rect x="12" y="34" width="4" height="2"></rect><rect x="56" y="34" width="2" height="2"></rect><rect x="31" y="17" width="2" height="2"></rect><path d="M22,25a3,3,0,0,0,6,0,2.966,2.966,0,0,0-.184-1h8.368A2.966,2.966,0,0,0,36,25a3,3,0,1,0,4.172-2.761l1.8-9.016L42.781,10H45V8H41.219l-1,4H21.78l2.048,10.239A3,3,0,0,0,22,25Zm17,1a1,1,0,1,1,1-1A1,1,0,0,1,39,26Zm.78-12-.6,3H36v2h2.78l-.6,3H25.82l-.6-3H28V17H24.82l-.6-3ZM25,24a1,1,0,1,1-1,1A1,1,0,0,1,25,24Z"></path><rect x="24" y="56" width="2" height="2"></rect><rect x="28" y="56" width="2" height="2"></rect><rect x="32" y="56" width="2" height="2"></rect><rect x="36" y="56" width="2" height="2"></rect></g></svg>