<svg height='100px' width='100px'  fill="#052040" xmlns="http://www.w3.org/2000/svg" xmlns:xlink="http://www.w3.org/1999/xlink" version="1.1" x="0px" y="0px" viewBox="0 0 100 100" style="enable-background:new 0 0 100 100;" xml:space="preserve"><g><g><g><g><g><path d="M87.1,31.9c-0.2,0-0.4,0-0.5-0.1l-8.6-5c-0.5-0.3-0.7-0.9-0.4-1.4c0.3-0.5,0.9-0.7,1.4-0.4l8.6,5       c0.5,0.3,0.7,0.9,0.4,1.4C87.8,31.7,87.4,31.9,87.1,31.9z"></path></g><g><path d="M87.1,96.4c-0.2,0-0.4,0-0.5-0.1L59.9,80.6c-0.5-0.3-0.7-0.9-0.4-1.4c0.3-0.5,0.9-0.7,1.4-0.4       l26.6,15.7c0.5,0.3,0.7,0.9,0.4,1.4C87.8,96.2,87.4,96.4,87.1,96.4z"></path></g><g><path d="M87.1,96.4c-0.2,0-0.3,0-0.5-0.1c-0.3-0.2-0.5-0.5-0.5-0.9V30.8c0-0.4,0.2-0.7,0.5-0.9l10.4-6.4       L64.5,4.9c-1.9-1.1-4.3-0.9-6,0.5l-5.2,4.3c-0.7,0.6-1.1,1.5-1.1,2.4v30.1c0,0.6-0.5,1-1,1c-0.6,0-1-0.5-1-1V12.1       c0-1.6,0.7-3,1.9-4l5.2-4.3c2.3-1.9,5.7-2.2,8.3-0.7l33.8,19.5c0.2,0.1,0.4,0.2,0.5,0.4c0.1,0.2,0.2,0.4,0.2,0.6V88       c0,0.4-0.2,0.7-0.5,0.9l-11.9,7.3C87.5,96.3,87.3,96.4,87.1,96.4z M88.1,31.4v62.1l9.8-6V25.4L88.1,31.4z"></path></g><g><path d="M78.5,48.3c-0.2,0-0.4-0.1-0.6-0.2l-7.8-5c-0.3-0.2-0.5-0.5-0.5-0.9V22.6L56,14       c-0.5-0.3-0.6-0.9-0.3-1.4c0.3-0.5,0.9-0.6,1.4-0.3l14.1,8.8c0.3,0.2,0.5,0.5,0.5,0.9v19.8l5.7,3.7V25.9c0-0.3,0.1-0.6,0.4-0.8       l5.3-4.5c0.4-0.4,1.1-0.3,1.5,0.1c0.4,0.4,0.3,1.1-0.1,1.5l-4.9,4.1v21c0,0.4-0.2,0.7-0.5,0.9C78.8,48.3,78.6,48.3,78.5,48.3z"></path></g></g></g></g><g><g><path d="M18.6,79.3c-0.4,0-0.8-0.3-1-0.7L9.3,53c-0.1-0.3,0-0.7,0.1-0.9c0.2-0.3,0.5-0.4,0.8-0.4h35.1     c0.6,0,1,0.5,1,1s-0.5,1-1,1H11.7l7.7,23.5l35.5,0l2.9-9c0.2-0.5,0.8-0.8,1.3-0.7c0.5,0.2,0.8,0.8,0.7,1.3l-3.2,9.7     c-0.1,0.4-0.5,0.7-1,0.7L18.6,79.3z"></path></g><g><path d="M10.3,53.7c-0.4,0-0.8-0.3-1-0.7l-2-5.3c-0.6-1.5-2-2.5-3.6-2.5H1c-0.6,0-1-0.5-1-1c0-0.6,0.5-1,1-1     h2.7c2.4,0,4.7,1.5,5.5,3.8l2,5.3c0.2,0.5-0.1,1.1-0.6,1.3C10.5,53.6,10.4,53.7,10.3,53.7z"></path></g><g><g><path d="M27.2,97.9c-2.8,0-5.1-2.3-5.1-5.1c0-2.8,2.3-5.1,5.1-5.1c2.8,0,5.1,2.3,5.1,5.1      C32.3,95.6,30,97.9,27.2,97.9z M27.2,89.8c-1.7,0-3,1.3-3,3c0,1.7,1.3,3,3,3s3-1.3,3-3C30.2,91.2,28.9,89.8,27.2,89.8z"></path></g><g><path d="M47.1,97.9c-2.8,0-5.1-2.3-5.1-5.1c0-2.8,2.3-5.1,5.1-5.1c2.8,0,5.1,2.3,5.1,5.1      C52.1,95.6,49.9,97.9,47.1,97.9z M47.1,89.8c-1.7,0-3,1.3-3,3c0,1.7,1.3,3,3,3s3-1.3,3-3C50.1,91.2,48.7,89.8,47.1,89.8z"></path></g></g><g><path d="M52.3,84.8H22.1c-0.6,0-1-0.5-1-1c0-0.6,0.5-1,1-1h30.2c0.6,0,1,0.5,1,1C53.3,84.4,52.8,84.8,52.3,84.8     z"></path></g><g><g><path d="M59,66.1c-6.2,0-11.2-5-11.2-11.2s5-11.2,11.2-11.2s11.2,5,11.2,11.2S65.2,66.1,59,66.1z M59,45.7      c-5,0-9.2,4.1-9.2,9.2c0,5,4.1,9.2,9.2,9.2c5,0,9.2-4.1,9.2-9.2C68.2,49.8,64.1,45.7,59,45.7z"></path></g><g><g><path d="M58.1,59.6c-0.3,0-0.5-0.1-0.7-0.3L54,56.2c-0.4-0.4-0.5-1-0.1-1.5c0.4-0.4,1-0.5,1.5-0.1L58,57       l5-6.1c0.4-0.4,1-0.5,1.5-0.1c0.4,0.4,0.5,1,0.1,1.5l-5.6,6.9C58.7,59.4,58.5,59.5,58.1,59.6C58.2,59.6,58.1,59.6,58.1,59.6z"></path></g></g></g><g><path d="M41.9,66.1H14.4c-0.6,0-1-0.5-1-1s0.5-1,1-1h27.5c0.6,0,1,0.5,1,1S42.4,66.1,41.9,66.1z"></path></g><g><g><path d="M45,75.8c-0.4,0-0.8-0.3-1-0.7l-6.1-18.7c-0.2-0.5,0.1-1.1,0.7-1.3c0.5-0.2,1.1,0.1,1.3,0.7L46,74.5      c0.2,0.5-0.1,1.1-0.7,1.3C45.2,75.8,45.1,75.8,45,75.8z"></path></g><g><path d="M31.2,75.8c-0.4,0-0.8-0.3-1-0.7l-6.1-18.7c-0.2-0.5,0.1-1.1,0.7-1.3c0.5-0.2,1.1,0.1,1.3,0.7      l6.1,18.7c0.2,0.5-0.1,1.1-0.7,1.3C31.4,75.8,31.3,75.8,31.2,75.8z"></path></g></g></g></g></svg>