<?xml version="1.0" encoding="UTF-8"?>
<svg width="118px" height="99px" viewBox="0 0 118 99" version="1.1" xmlns="http://www.w3.org/2000/svg" xmlns:xlink="http://www.w3.org/1999/xlink">
    <!-- Generator: Sketch 48.2 (47327) - http://www.bohemiancoding.com/sketch -->
    <title>twitter</title>
    <desc>Created with Sketch.</desc>
    <defs></defs>
    <g id="Page-1" stroke="none" stroke-width="1" fill="none" fill-rule="evenodd">
        <g id="twitter" fill="#B72922" fill-rule="nonzero">
            <path d="M114.349333,11.776 C115.21912,8.82813333 114.224333,5.63533333 111.807733,3.71866667 C110.438,2.62492 108.776533,2.0728 107.094133,2.0728 C105.766013,2.0728 104.437867,2.42176 103.2452,3.13009333 C100.875467,4.52076 98.4014667,5.63529333 95.8129333,6.42182667 C90.8702667,2.64062667 84.74,0.53636 78.4382667,0.53636 C63.9956,0.53636 52.0316,11.30716 50.1462667,25.2390267 C38.6306667,22.7754267 28.1409333,16.4316933 20.5836,7.16036 C19.1461333,5.38436 16.9846667,4.36862667 14.7294667,4.36862667 C14.5419733,4.36862667 14.33884,4.38425067 14.13572,4.394668 C11.66172,4.58737467 9.44825333,5.98320133 8.19825333,8.123868 C5.66185333,12.4728013 4.32332,17.4312013 4.32332,22.487868 C4.32332,25.8993347 4.92748,29.222268 6.04732,32.3212013 C4.8442,33.6909347 4.14105333,35.467068 4.14105333,37.3472013 C4.14105333,44.8368013 6.96918667,51.721868 11.6774533,56.893868 C11.3857867,58.1855347 11.4326667,59.5501347 11.8545333,60.857468 C13.4848,65.9616013 16.4638667,70.352268 20.3233333,73.7064013 C17.8181333,74.274108 15.2296,74.5657747 12.5993333,74.5657747 C11.2348,74.5657747 9.85973333,74.4772333 8.46906667,74.320988 C8.1774,74.2845293 7.88052,74.263696 7.58365333,74.263696 C4.42218667,74.263696 1.55765333,76.242896 0.48472,79.289696 C-0.707986667,82.5970293 0.552428,86.294896 3.51072,88.1959627 C14.3648533,95.1490293 26.9120533,98.8262293 39.7813867,98.8262293 C81.52672,98.8262293 106.61472,65.2275627 107.068053,32.4302293 C110.46392,29.5343627 113.45352,26.2062293 115.98472,22.4875627 C116.943053,21.221936 117.51072,19.6542293 117.51072,17.9354293 C117.505512,15.3990293 116.26072,13.1542293 114.349253,11.7739627 L114.349333,11.776 Z M99.448,28.8026667 C99.4948747,29.7037067 99.515708,30.61 99.515708,31.5162667 C99.515708,59.2616 78.395708,91.2509333 39.7810413,91.2509333 C27.926908,91.2509333 16.8903747,87.7769333 7.59304133,81.8186667 C9.228508,82.00096 10.9055747,82.1155467 12.6034413,82.1155467 C22.4419747,82.1155467 31.4887747,78.7562133 38.682108,73.1207467 C29.4842413,72.9592933 21.7394413,66.8811467 19.062108,58.54208 C20.3433613,58.7868667 21.6610413,58.9222933 23.0047747,58.9222933 C24.9266413,58.9222933 26.7807747,58.66188 28.5359747,58.1827067 C18.9318413,56.24524 11.6919747,47.77124 11.6919747,37.5893733 L11.6919747,37.32896 C14.525308,38.8966933 17.764908,39.83936 21.2023747,39.9486933 C15.572108,36.1830933 11.8690413,29.7508267 11.8690413,22.4700267 C11.8690413,18.6262933 12.9054947,15.02216 14.7127747,11.9230933 C25.061708,24.62616 40.5354413,32.9804267 57.9834413,33.8550933 C57.6188547,32.3238933 57.446988,30.7144267 57.446988,29.0686933 C57.446988,17.48536 66.8428547,8.08469333 78.430988,8.08469333 C84.472588,8.08469333 89.930988,10.6316267 93.758988,14.7044267 C98.534988,13.7669333 103.034988,12.02216 107.087121,9.61589333 C105.514188,14.51696 102.186055,18.6314933 97.8579213,21.2252267 C102.102721,20.7252267 106.139121,19.59496 109.910055,17.9178933 C107.102721,22.1470933 103.550721,25.84496 99.4464547,28.80336 L99.448,28.8026667 Z" id="Shape"></path>
        </g>
    </g>
</svg>