<svg id="profile-7" data-name="profile" xmlns="http://www.w3.org/2000/svg" viewBox="0 0 240 220"><defs><style>.cls-1{fill:#f7f7ff;}.cls-2{fill:#ededf5;}.cls-3{fill:#b9b9bf;}.cls-4{fill:#861367;}.cls-5{fill:#74382e;}.cls-6{fill:#fff;}.cls-7{fill:#d5d5db;}.cls-8{fill:#e9e9ee;}.cls-9{fill:#3e3e40;}.cls-10{fill:#cbcbd1;}</style></defs><title>UX_Flow_Tiles_Final</title><g id="chat"><path id="bg" class="cls-1" d="M0,20H240a0,0,0,0,1,0,0V216a4,4,0,0,1-4,4H4a4,4,0,0,1-4-4V20A0,0,0,0,1,0,20Z"/><g id="input"><rect id="fill" class="cls-2" x="48" y="170" width="104" height="20" rx="10" ry="10"/><path id="frame" class="cls-3" d="M142,173a7,7,0,0,1,0,14H58a7,7,0,0,1,0-14h84m0-3H58a10,10,0,0,0,0,20h84a10,10,0,0,0,0-20h0Z"/></g><path class="cls-4" d="M182,173a7,7,0,0,1,0,14H170a7,7,0,0,1,0-14h12m0-3H170a10,10,0,0,0,0,20h12a10,10,0,0,0,0-20h0Z"/><g id="profile-8" data-name="profile"><g id="avatar_bg" data-name="avatar bg"><circle id="fill-2" data-name="fill" class="cls-4" cx="70" cy="70" r="20"/><path id="frame-2" data-name="frame" class="cls-5" d="M70,53A17,17,0,1,1,53,70,17,17,0,0,1,70,53m0-3A20,20,0,1,0,90,70,20,20,0,0,0,70,50h0Z"/></g><g id="avatar"><g id="body"><path id="fill-3" data-name="fill" class="cls-6" d="M79.1,85.41c0-5-4.08-7.78-9.1-7.78s-9.1,2.77-9.1,7.78A18.8,18.8,0,0,0,70,88,19.22,19.22,0,0,0,79.1,85.41Z"/><path id="frame-3" data-name="frame" class="cls-5" d="M70,89.5a20.24,20.24,0,0,1-9.91-2.83l-0.69-.44V85.41c0-5.47,4.36-9.28,10.6-9.28s10.6,3.82,10.6,9.28v0.83l-0.71.44A20.65,20.65,0,0,1,70,89.5Zm-7.55-4.95A17.26,17.26,0,0,0,70,86.5a17.52,17.52,0,0,0,7.55-2c-0.48-4-4.27-5.42-7.55-5.42S62.92,80.56,62.45,84.55Z"/></g><g id="head"><ellipse id="fill-4" data-name="fill" class="cls-6" cx="70" cy="70.49" rx="6.5" ry="6.49"/><path id="frame-4" data-name="frame" class="cls-5" d="M70,78.47a8,8,0,1,1,8-8A8,8,0,0,1,70,78.47Zm0-13a5,5,0,1,0,5,5A5,5,0,0,0,70,65.5Z"/></g></g></g><g id="profile-9" data-name="profile"><g id="avatar_bg-2" data-name="avatar bg"><circle id="fill-5" data-name="fill" class="cls-4" cx="172" cy="126.12" r="20"/><path id="frame-5" data-name="frame" class="cls-5" d="M172,109.12a17,17,0,1,1-17,17,17,17,0,0,1,17-17m0-3a20,20,0,1,0,20,20,20,20,0,0,0-20-20h0Z"/></g><g id="avatar-2" data-name="avatar"><g id="body-2" data-name="body"><path id="fill-6" data-name="fill" class="cls-6" d="M181.1,141.53c0-5-4.08-7.78-9.1-7.78s-9.1,2.77-9.1,7.78a18.8,18.8,0,0,0,9.1,2.59A19.22,19.22,0,0,0,181.1,141.53Z"/><path id="frame-6" data-name="frame" class="cls-5" d="M172,145.62a20.24,20.24,0,0,1-9.91-2.83l-0.69-.44v-0.82c0-5.47,4.36-9.28,10.6-9.28s10.6,3.82,10.6,9.28v0.83l-0.71.44A20.65,20.65,0,0,1,172,145.62Zm-7.55-4.95a17.26,17.26,0,0,0,7.55,1.95,17.52,17.52,0,0,0,7.55-2c-0.48-4-4.27-5.42-7.55-5.42S164.92,136.69,164.45,140.67Z"/></g><g id="head-2" data-name="head"><ellipse id="fill-7" data-name="fill" class="cls-6" cx="172" cy="126.61" rx="6.5" ry="6.49"/><path id="frame-7" data-name="frame" class="cls-5" d="M172,134.59a8,8,0,1,1,8-8A8,8,0,0,1,172,134.59Zm0-13a5,5,0,1,0,5,5A5,5,0,0,0,172,121.62Z"/></g></g></g><g id="info"><g id="copy"><path id="text" class="cls-7" d="M189,73H104a2,2,0,0,1,0-4h85A2,2,0,0,1,189,73Z"/></g><g id="copy-2" data-name="copy"><path id="text-2" data-name="text" class="cls-7" d="M132,85H104a2,2,0,0,1,0-4h28A2,2,0,0,1,132,85Z"/></g><g id="copy-3" data-name="copy"><path id="text-3" data-name="text" class="cls-7" d="M187,85H144a2,2,0,0,1,0-4h43A2,2,0,0,1,187,85Z"/></g><path id="headline" class="cls-3" d="M141,61H103.71a2,2,0,0,1,0-4H141A2,2,0,0,1,141,61Z"/></g><g id="info-2" data-name="info"><g id="copy-4" data-name="copy"><path id="text-4" data-name="text" class="cls-7" d="M135,128H50a2,2,0,0,1,0-4h85A2,2,0,0,1,135,128Z"/></g><g id="copy-5" data-name="copy"><path id="text-5" data-name="text" class="cls-7" d="M78,140H50a2,2,0,0,1,0-4H78A2,2,0,0,1,78,140Z"/></g><g id="copy-6" data-name="copy"><path id="text-6" data-name="text" class="cls-7" d="M133,140H90a2,2,0,0,1,0-4h43A2,2,0,0,1,133,140Z"/></g><path id="headline-2" data-name="headline" class="cls-3" d="M87,116H49.71a2,2,0,0,1,0-4H87A2,2,0,0,1,87,116Z"/></g></g><g id="browser"><rect id="header" class="cls-8" x="3" y="2.99" width="234" height="14"/><path id="frame-8" data-name="frame" class="cls-9" d="M236,0H4A4,4,0,0,0,0,4V216a4,4,0,0,0,4,4H236a4,4,0,0,0,4-4V4A4,4,0,0,0,236,0Zm1,216a1,1,0,0,1-1,1H4a1,1,0,0,1-1-1V20H237V216ZM3,17V4A1,1,0,0,1,4,3H236a1,1,0,0,1,1,1V17H3Z"/><g id="dots"><circle id="dot" class="cls-10" cx="10" cy="9.99" r="3"/><circle id="dot-2" data-name="dot" class="cls-10" cx="19" cy="9.99" r="3"/><circle id="dot-3" data-name="dot" class="cls-10" cx="28" cy="9.99" r="3"/></g></g></svg>