<svg height='100px' width='100px'  fill="#666666" xmlns="http://www.w3.org/2000/svg" xmlns:xlink="http://www.w3.org/1999/xlink" version="1.1" x="0px" y="0px" viewBox="0 0 512 512" enable-background="new 0 0 512 512" xml:space="preserve"><g><g><g><path d="M490,496H30c-3.313,0-6-2.687-6-6V30c0-3.313,2.687-6,6-6h460c3.313,0,6,2.687,6,6v460C496,493.313,493.313,496,490,496z      M36,484h448V36H36V484z"></path></g><g><path d="M490,116H30c-3.313,0-6-2.687-6-6V30c0-3.313,2.687-6,6-6h460c3.313,0,6,2.687,6,6v80C496,113.313,493.313,116,490,116z      M36,104h448V36H36V104z"></path></g><rect x="400" y="60" width="20" height="20"></rect><rect x="360" y="60" width="20" height="20"></rect><rect x="440" y="60" width="20" height="20"></rect><g><path d="M140,296H70c-3.313,0-6-2.687-6-6s2.687-6,6-6h70c3.313,0,6,2.687,6,6S143.313,296,140,296z"></path></g><g><path d="M280,296H180c-3.314,0-6-2.687-6-6s2.686-6,6-6h100c3.313,0,6,2.687,6,6S283.313,296,280,296z"></path></g><g><path d="M290,336H140c-3.313,0-6-2.687-6-6s2.687-6,6-6h150c3.313,0,6,2.687,6,6S293.313,336,290,336z"></path></g><g><path d="M100,336H70c-3.313,0-6-2.687-6-6s2.687-6,6-6h30c3.313,0,6,2.687,6,6S103.313,336,100,336z"></path></g><g><path d="M300,376h-80c-3.313,0-6-2.687-6-6s2.687-6,6-6h80c3.313,0,6,2.687,6,6S303.313,376,300,376z"></path></g><g><path d="M180,376H70c-3.314,0-6-2.687-6-6s2.686-6,6-6h110c3.314,0,6,2.687,6,6S183.314,376,180,376z"></path></g><g><path d="M210,256H70c-3.313,0-6-2.687-6-6s2.687-6,6-6h140c3.313,0,6,2.687,6,6S213.313,256,210,256z"></path></g><g><path d="M270,256h-20c-3.313,0-6-2.687-6-6s2.687-6,6-6h20c3.313,0,6,2.687,6,6S273.313,256,270,256z"></path></g><g><path d="M330,456H210c-3.313,0-6-2.687-6-6s2.687-6,6-6h120c3.313,0,6,2.687,6,6S333.313,456,330,456z"></path></g><g><path d="M170,456H70c-3.314,0-6-2.687-6-6s2.686-6,6-6h100c3.314,0,6,2.687,6,6S173.314,456,170,456z"></path></g><g><path d="M320,416h-40c-3.313,0-6-2.687-6-6s2.687-6,6-6h40c3.313,0,6,2.687,6,6S323.313,416,320,416z"></path></g><g><path d="M240,416H70c-3.313,0-6-2.687-6-6s2.687-6,6-6h170c3.313,0,6,2.687,6,6S243.313,416,240,416z"></path></g><g><path d="M450,216H70c-3.313,0-6-2.687-6-6v-60c0-3.313,2.687-6,6-6h380c3.313,0,6,2.687,6,6v60C456,213.313,453.313,216,450,216z      M76,204h368v-48H76V204z"></path></g><g><path d="M350.006,336.001c-1.939,0-3.842-0.938-4.998-2.673l-20-30c-1.344-2.016-1.344-4.641,0-6.656l20-30     c1.837-2.758,5.563-3.502,8.32-1.664c2.757,1.838,3.502,5.563,1.664,8.32L337.211,300l17.781,26.672     c1.838,2.757,1.093,6.482-1.664,8.32C352.306,335.674,351.149,336.001,350.006,336.001z"></path></g><g><path d="M429.994,336.001c-1.144,0-2.3-0.327-3.322-1.009c-2.757-1.838-3.502-5.563-1.664-8.32L442.789,300l-17.781-26.672     c-1.838-2.757-1.093-6.482,1.664-8.32c2.758-1.837,6.482-1.093,8.32,1.664l20,30c1.344,2.016,1.344,4.641,0,6.656l-20,30     C433.836,335.063,431.934,336.001,429.994,336.001z"></path></g><g><path d="M369.998,356.002c-0.742,0-1.495-0.139-2.227-0.431c-3.076-1.231-4.573-4.723-3.343-7.8l40-100     c1.231-3.077,4.723-4.573,7.8-3.342c3.076,1.23,4.573,4.723,3.343,7.799l-40,100     C374.633,354.574,372.379,356.002,369.998,356.002z"></path></g></g></g></svg>