<svg fill="#861367" xmlns="http://www.w3.org/2000/svg" xmlns:xlink="http://www.w3.org/1999/xlink" viewBox="0 0 60 60" version="1.1" x="0px" y="0px"><title>72 -Web- (Solid)</title><desc>Created with Sketch.</desc><g stroke="none" stroke-width="1" fill="none" fill-rule="evenodd"><g transform="translate(-239.000000, -1171.000000)" fill="#861367"><g transform="translate(239.000000, 1171.000000)"><path d="M29.0771,4.3818 C29.1281,4.5048 29.2011,4.6148 29.2941,4.7078 L32.2931,7.7068 C32.4881,7.9028 32.7441,7.9998 33.0001,7.9998 C33.2561,7.9998 33.5121,7.9028 33.7071,7.7068 C34.0981,7.3168 34.0981,6.6838 33.7071,6.2928 L32.5541,5.1398 C43.8381,6.2878 53.2711,14.9318 55.0121,26.1528 C55.0881,26.6478 55.5141,26.9998 55.9981,26.9998 C56.0501,26.9998 56.1011,26.9958 56.1531,26.9878 C56.6991,26.9028 57.0731,26.3928 56.9881,25.8468 C55.0861,13.5798 44.6821,4.1568 32.3121,3.1018 L33.7071,1.7068 C34.0981,1.3168 34.0981,0.6838 33.7071,0.2928 C33.3161,-0.0972 32.6831,-0.0972 32.2931,0.2928 L29.2941,3.2918 C29.2011,3.3848 29.1281,3.4948 29.0771,3.6178 C28.9761,3.8618 28.9761,4.1378 29.0771,4.3818"></path><path d="M14.9609,15.374 C11.4979,18.935 9.3009,23.714 9.0509,29 L21.0199,29 C21.0709,25.901 21.3589,23.012 21.8469,20.422 C19.8539,19.558 18.0219,18.348 16.3119,16.726 L14.9609,15.374 Z"></path><path d="M36.2275,38.8711 C36.6585,36.5221 36.9285,33.8781 36.9805,31.0001 L23.0195,31.0001 C23.0715,33.8781 23.3415,36.5231 23.7725,38.8721 C25.6815,38.2951 27.7375,38.0001 29.9995,38.0001 C32.2635,38.0001 34.3195,38.2961 36.2275,38.8711"></path><path d="M30,40 C27.853,40 25.944,40.279 24.183,40.829 C25.537,46.507 27.845,50 30,50 C32.155,50 34.463,46.507 35.817,40.828 C34.058,40.279 32.148,40 30,40"></path><path d="M45.0391,44.626 C48.5021,41.065 50.6991,36.286 50.9491,31 L38.9801,31 C38.9291,34.099 38.6411,36.988 38.1531,39.579 C40.1461,40.442 41.9781,41.652 43.6881,43.274 L45.0391,44.626 Z"></path><path d="M14.9604,44.625 L16.2934,43.293 C18.0124,41.662 19.8494,40.446 21.8474,39.58 C21.3594,36.99 21.0714,34.1 21.0194,31 L9.0504,31 C9.3014,36.286 11.4974,41.065 14.9604,44.625"></path><path d="M23.7725,21.1289 C23.3415,23.4779 23.0715,26.1219 23.0195,28.9999 L36.9805,28.9999 C36.9285,26.1219 36.6585,23.4769 36.2275,21.1279 C34.3185,21.7039 32.2625,21.9999 30.0005,21.9999 C27.7365,21.9999 25.6805,21.7039 23.7725,21.1289"></path><path d="M22.2744,41.5654 C20.6414,42.3254 19.1304,43.3574 17.6884,44.7254 L16.4214,45.9914 C19.3444,48.4764 22.9534,50.1614 26.9194,50.7484 C24.9374,49.0884 23.3164,45.8484 22.2744,41.5654"></path><path d="M45.0396,15.375 L43.7066,16.707 C41.9876,18.338 40.1506,19.554 38.1526,20.42 C38.6406,23.01 38.9286,25.9 38.9806,29 L50.9496,29 C50.6986,23.714 48.5026,18.935 45.0396,15.375"></path><path d="M33.0806,50.748 C37.0466,50.161 40.6556,48.477 43.5776,45.992 L42.2926,44.707 C40.8596,43.348 39.3546,42.32 37.7266,41.563 C36.6846,45.848 35.0626,49.089 33.0806,50.748"></path><path d="M26.9194,9.252 C22.9534,9.839 19.3444,11.523 16.4224,14.008 L17.7074,15.293 C19.1404,16.651 20.6454,17.68 22.2734,18.437 C23.3154,14.152 24.9374,10.911 26.9194,9.252"></path><path d="M30,20 C32.147,20 34.056,19.721 35.817,19.171 C34.463,13.493 32.155,10 30,10 C27.845,10 25.537,13.493 24.183,19.172 C25.942,19.721 27.852,20 30,20"></path><path d="M42.312,15.2744 L43.578,14.0084 C40.656,11.5234 37.047,9.8384 33.081,9.2524 C35.062,10.9114 36.684,14.1514 37.726,18.4344 C39.358,17.6744 40.87,16.6424 42.312,15.2744"></path><path d="M30.9229,55.6182 C30.8719,55.4952 30.7989,55.3852 30.7059,55.2922 L27.7069,52.2932 C27.3169,51.9022 26.6839,51.9022 26.2929,52.2932 C25.9019,52.6832 25.9019,53.3162 26.2929,53.7072 L27.4459,54.8602 C16.1619,53.7122 6.7289,45.0682 4.9879,33.8472 C4.9029,33.3002 4.3889,32.9282 3.8469,33.0122 C3.3009,33.0972 2.9269,33.6072 3.0119,34.1532 C4.9139,46.4202 15.3179,55.8432 27.6879,56.8982 L26.2929,58.2932 C25.9019,58.6832 25.9019,59.3162 26.2929,59.7072 C26.4879,59.9022 26.7439,60.0002 26.9999,60.0002 C27.2559,60.0002 27.5119,59.9022 27.7069,59.7072 L30.7059,56.7082 C30.7989,56.6152 30.8719,56.5052 30.9229,56.3822 C31.0239,56.1382 31.0239,55.8622 30.9229,55.6182"></path><path d="M3.6182,30.9229 C3.7402,30.9739 3.8692,30.9999 4.0002,30.9999 C4.1302,30.9999 4.2602,30.9739 4.3822,30.9229 C4.5052,30.8719 4.6152,30.7989 4.7072,30.7059 L7.7072,27.7069 C8.0972,27.3169 8.0972,26.6839 7.7072,26.2929 C7.3162,25.9019 6.6832,25.9019 6.2932,26.2929 L5.1392,27.4459 C6.2882,16.1619 14.9312,6.7289 26.1532,4.9879 C26.6992,4.9029 27.0732,4.3929 26.9882,3.8469 C26.9032,3.3009 26.3862,2.9269 25.8472,3.0119 C13.5792,4.9139 4.1572,15.3179 3.1012,27.6879 L1.7072,26.2929 C1.3162,25.9019 0.6832,25.9019 0.2932,26.2929 C-0.0978,26.6839 -0.0978,27.3169 0.2932,27.7069 L3.2922,30.7059 C3.3852,30.7989 3.4952,30.8719 3.6182,30.9229"></path><path d="M59.707,32.293 L56.707,29.294 C56.615,29.201 56.505,29.128 56.382,29.077 C56.138,28.976 55.862,28.976 55.618,29.077 C55.495,29.128 55.385,29.201 55.292,29.294 L52.293,32.293 C51.902,32.684 51.902,33.316 52.293,33.707 C52.684,34.098 53.316,34.098 53.707,33.707 L54.86,32.554 C53.712,43.838 45.068,53.272 33.847,55.012 C33.301,55.097 32.927,55.607 33.012,56.153 C33.088,56.647 33.514,57 33.999,57 C34.05,57 34.102,56.996 34.153,56.988 C46.42,55.086 55.843,44.683 56.898,32.313 L58.293,33.707 C58.488,33.902 58.744,34 59,34 C59.256,34 59.512,33.902 59.707,33.707 C60.098,33.316 60.098,32.684 59.707,32.293"></path></g></g></g></svg>