<?xml version="1.0" encoding="UTF-8" standalone="no"?>
<svg
   xmlns:dc="http://purl.org/dc/elements/1.1/"
   xmlns:cc="http://creativecommons.org/ns#"
   xmlns:rdf="http://www.w3.org/1999/02/22-rdf-syntax-ns#"
   xmlns:svg="http://www.w3.org/2000/svg"
   xmlns="http://www.w3.org/2000/svg"
   id="svg972"
   version="1.1"
   viewBox="0 0 120.46628 110.87809"
   height="110.87809mm"
   width="120.46628mm">
  <defs
     id="defs966" />
  <metadata
     id="metadata969">
    <rdf:RDF>
      <cc:Work
         rdf:about="">
        <dc:format>image/svg+xml</dc:format>
        <dc:type
           rdf:resource="http://purl.org/dc/dcmitype/StillImage" />
        <dc:title></dc:title>
      </cc:Work>
    </rdf:RDF>
  </metadata>
  <g
     transform="translate(-0.98579965,-49.139486)"
     id="layer1">
    <g
       transform="matrix(4.2657903,0,0,4.2657903,-6.4441485,38.987163)"
       id="g1553">
      <circle
         style="fill:#f7df1e"
         cx="7.5599999"
         cy="13.93"
         r="1.52"
         id="circle4" />
      <circle
         style="fill:#f7df1e"
         cx="12.86"
         cy="13.93"
         r="1.52"
         id="circle6" />
      <circle
         style="fill:#f7df1e"
         cx="18.17"
         cy="13.93"
         r="1.52"
         id="circle8" />
      <path
         style="fill:#f7df1e"
         d="m 28.48,28.36 c -1.69,0 -4.74,-1.53 -5.86,-2.13 A 11.3,11.3 0 0 1 18.69,26.93 11.11,11.11 0 0 1 12,24.72 l -2.94,-2.18 3.64,0.39 h 0.17 A 9.27,9.27 0 0 0 18.37,6.2 L 15.81,4.31 19,4.39 a 11.28,11.28 0 0 1 8.48,18.36 c 0.61,2.22 1.26,3.35 1.69,3.69 A 1.1,1.1 0 0 1 29.49,28 1.14,1.14 0 0 1 28.48,28.36 Z M 22.76,24 l 0.43,0.24 a 24.87,24.87 0 0 0 3.19,1.49 19.07,19.07 0 0 1 -1,-2.92 l -0.13,-0.52 0.33,-0.48 A 9.3,9.3 0 0 0 21.92,7 a 11.27,11.27 0 0 1 -6,17.56 9.49,9.49 0 0 0 6.39,-0.3 z"
         id="path10" />
      <path
         style="fill:#f7df1e"
         d="M 20.93,5.8 A 10.67,10.67 0 0 0 19.55,4.59 11.09,11.09 0 0 0 12.87,2.38 11.3,11.3 0 0 0 1.79,11.56 a 1,1 0 0 0 1,1.19 v 0 a 1,1 0 0 0 1,-0.77 9.31,9.31 0 0 1 9.13,-7.6 v 0 a 9.1,9.1 0 0 1 5.45,1.82 9.29,9.29 0 0 1 3.43,5 9,9 0 0 1 0.35,2.49 9.28,9.28 0 0 1 -9.27,9.27 H 12.62 A 8.78,8.78 0 0 1 9.27,22.25 L 8.81,22 8.38,22.24 a 25.36,25.36 0 0 1 -3.2,1.49 18,18 0 0 0 1,-3 L 6.3,20.22 5.95,19.84 a 9.24,9.24 0 0 1 -2.19,-4.47 1,1 0 0 0 -1,-0.78 v 0 a 1,1 0 0 0 -1,1.19 11.25,11.25 0 0 0 2.31,5 8.71,8.71 0 0 1 -1.69,3.68 1.1,1.1 0 0 0 -0.32,1.54 1.15,1.15 0 0 0 1,0.4 c 1.69,0 4.74,-1.53 5.87,-2.13 a 11,11 0 0 0 3.55,0.69 h 0.39 A 11.26,11.26 0 0 0 20.93,5.8 Z"
         id="path12" />
    </g>
  </g>
</svg>
