<?xml version="1.0" encoding="UTF-8" standalone="no"?>
<svg
   xmlns:dc="http://purl.org/dc/elements/1.1/"
   xmlns:cc="http://creativecommons.org/ns#"
   xmlns:rdf="http://www.w3.org/1999/02/22-rdf-syntax-ns#"
   xmlns:svg="http://www.w3.org/2000/svg"
   xmlns="http://www.w3.org/2000/svg"
   xmlns:sodipodi="http://sodipodi.sourceforge.net/DTD/sodipodi-0.dtd"
   xmlns:inkscape="http://www.inkscape.org/namespaces/inkscape"
   preserveAspectRatio="xMidYMid"
   version="1.1"
   viewBox="0 0 224.20612 197.15411"
   id="svg10"
   sodipodi:docname="WooCommerce.svg"
   width="224.20612"
   height="197.15411"
   inkscape:version="1.0.2 (1.0.2+r75+1)">
  <defs
     id="defs14" />
  <sodipodi:namedview
     pagecolor="#ffffff"
     bordercolor="#666666"
     borderopacity="1"
     objecttolerance="10"
     gridtolerance="10"
     guidetolerance="10"
     inkscape:pageopacity="0"
     inkscape:pageshadow="2"
     inkscape:window-width="1366"
     inkscape:window-height="707"
     id="namedview12"
     showgrid="false"
     fit-margin-top="0"
     fit-margin-left="0"
     fit-margin-right="0"
     fit-margin-bottom="0"
     inkscape:zoom="0.93954248"
     inkscape:cx="125.56793"
     inkscape:cy="109.80565"
     inkscape:window-x="0"
     inkscape:window-y="0"
     inkscape:window-maximized="1"
     inkscape:current-layer="svg10" />
  <title
     id="title2">WooCommerce Logo</title>
  <metadata
     id="metadata4">
    <rdf:RDF>
      <cc:Work
         rdf:about="">
        <dc:format>image/svg+xml</dc:format>
        <dc:type
           rdf:resource="http://purl.org/dc/dcmitype/StillImage" />
        <dc:title>WooCommerce Logo</dc:title>
      </cc:Work>
    </rdf:RDF>
  </metadata>
  <g
     id="g1536"
     transform="matrix(2.8351446,0,0,2.8351446,0.567029,-7.087861)">
    <g
       id="g24"
       style="fill:#0a2346">
      <path
         inkscape:connector-curvature="0"
         d="M -0.2,2.5 V 62.4 H 65.3 V 2.5 Z m 64,1.5 v 6.2 H 1.3 V 4 Z M 1.3,61 V 11.7 H 63.8 V 61 Z"
         id="path2" />
      <rect
         x="53.099998"
         y="6.4000001"
         width="1.5"
         height="1.5"
         id="rect4" />
      <rect
         x="56.900002"
         y="6.4000001"
         width="1.5"
         height="1.5"
         id="rect6" />
      <rect
         x="49.299999"
         y="6.4000001"
         width="1.5"
         height="1.5"
         id="rect8" />
      <rect
         x="6.0999999"
         y="6.4000001"
         width="38.5"
         height="1.5"
         id="rect10" />
    </g>
  </g>
  <rect
     style="fill:#ffffff;fill-opacity:1;stroke:none;stroke-width:3.31465"
     id="rect1567"
     width="100.909"
     height="79.259491"
     x="123.29712"
     y="117.89462" />
  <g
     id="g1510"
     transform="matrix(1.7283613,0,0,1.7283613,-57.735088,34.536986)">
    <path
       d="m 59.545645,4.2289118 h 55.133875 c 3.48906,0 6.31375,2.824427 6.31375,6.3137522 v 21.045487 c 0,3.489061 -2.82443,6.313752 -6.31375,6.313752 H 94.908001 l 2.713831,6.645804 -11.935089,-6.645804 H 59.573691 c -3.48906,0 -6.313752,-2.824427 -6.313752,-6.313752 V 10.542664 C 53.232248,7.0811198 56.05685,4.2289118 59.54591,4.2289118 Z"
       fill="#7f54b3"
       id="path6-3"
       style="fill:#0a2346;fill-opacity:1;stroke-width:0.264583" />
    <path
       d="m 57.116506,9.9835988 c 0.385471,-0.523134 0.963692,-0.798486 1.734635,-0.853545 1.404223,-0.110136 2.202709,0.550677 2.395458,1.9824432 0.853546,5.754688 1.789694,10.628048 2.781035,14.62061 l 6.029854,-11.481593 c 0.550678,-1.046295 1.239017,-1.596972 2.065047,-1.652032 1.2115,-0.0826 1.9549,0.68834 2.257769,2.312855 0.68834,3.662098 1.569429,6.773333 2.615723,9.416521 0.715883,-6.993731 1.927384,-12.032192 3.634582,-15.1436922 0.413014,-0.770943 1.018751,-1.156414 1.817237,-1.2115 0.63328,-0.05507 1.211501,0.13767 1.734635,0.550677 0.523134,0.413015 0.798486,0.936149 0.853546,1.5694292 0.02753,0.495617 -0.05507,0.908606 -0.275352,1.32162 -1.073812,1.982444 -1.9549,5.314156 -2.670704,9.939602 -0.68834,4.488127 -0.936149,7.98486 -0.770943,10.490465 0.05507,0.68834 -0.05507,1.294103 -0.330412,1.817237 -0.330411,0.605737 -0.826029,0.936149 -1.459283,0.991209 -0.715883,0.05507 -1.459283,-0.275326 -2.175166,-1.018752 -2.560637,-2.615724 -4.598193,-6.525419 -6.084887,-11.729508 -1.789695,3.52425 -3.111236,6.167702 -3.964781,7.929827 -1.624489,3.111235 -3.001169,4.70826 -4.157663,4.79081 -0.743426,0.05507 -1.376706,-0.57822 -1.927384,-1.89984 -1.404223,-3.607065 -2.918618,-10.573015 -4.54316,-20.898115 -0.110135,-0.715883 0.05507,-1.349163 0.440531,-1.8447802 z m 59.171414,4.3227632 c -0.99121,-1.734635 -2.45052,-2.781036 -4.40531,-3.19405 -0.52314,-0.110136 -1.01875,-0.165203 -1.48683,-0.165203 -2.64324,0 -4.79081,1.376706 -6.47038,4.130146 -1.43177,2.340371 -2.14765,4.928658 -2.14765,7.764462 0,2.120106 0.44053,3.937264 1.32162,5.451739 0.99121,1.734635 2.45052,2.781036 4.40531,3.19405 0.52313,0.110136 1.01875,0.165204 1.48683,0.165204 2.6707,0 4.81832,-1.376707 6.47038,-4.130146 1.43177,-2.367915 2.14765,-4.956175 2.14765,-7.791979 0.0275,-2.14765 -0.44053,-3.937265 -1.32162,-5.424223 z m -3.46922,7.626879 c -0.38547,1.817238 -1.07381,3.166269 -2.09256,4.075112 -0.79848,0.715884 -1.54188,1.018752 -2.23025,0.881089 -0.66082,-0.13767 -1.2115,-0.715883 -1.62449,-1.789694 -0.33041,-0.853546 -0.49562,-1.707092 -0.49562,-2.505578 0,-0.68834 0.0551,-1.376706 0.19274,-2.00996 0.24781,-1.128898 0.71588,-2.230252 1.45928,-3.2766 0.90861,-1.349163 1.8723,-1.899841 2.86359,-1.707092 0.66082,0.137671 1.2115,0.715883 1.62449,1.789695 0.33041,0.853546 0.49562,1.707092 0.49562,2.505578 0,0.715883 -0.0551,1.404223 -0.19274,2.037503 z M 99.051641,14.306362 c -0.991209,-1.734635 -2.478061,-2.781036 -4.405313,-3.19405 -0.523134,-0.110136 -1.018751,-0.165203 -1.486826,-0.165203 -2.64324,0 -4.79081,1.376706 -6.470385,4.130146 -1.431766,2.340371 -2.147649,4.928658 -2.147649,7.764462 0,2.120106 0.440531,3.937264 1.32162,5.451739 0.991208,1.734635 2.450518,2.781036 4.405312,3.19405 0.523134,0.110136 1.018752,0.165204 1.486826,0.165204 2.670704,0 4.818327,-1.376707 6.470386,-4.130146 1.431766,-2.367915 2.147648,-4.956175 2.147648,-7.791979 0,-2.14765 -0.44053,-3.937265 -1.321619,-5.424223 z m -3.496734,7.626879 c -0.385471,1.817238 -1.073811,3.166269 -2.092563,4.075112 -0.798486,0.715884 -1.541885,1.018752 -2.230252,0.881089 -0.660823,-0.13767 -1.2115,-0.715883 -1.624489,-1.789694 -0.330411,-0.853546 -0.495617,-1.707092 -0.495617,-2.505578 0,-0.68834 0.05507,-1.376706 0.192738,-2.00996 0.247804,-1.128898 0.715883,-2.230252 1.459283,-3.2766 0.908606,-1.349163 1.872298,-1.899841 2.863586,-1.707092 0.660823,0.137671 1.2115,0.715883 1.624488,1.789695 0.330412,0.853546 0.495618,1.707092 0.495618,2.505578 0.02753,0.715883 -0.05507,1.404223 -0.192739,2.037503 z"
       fill="#ffffff"
       id="path8-6"
       style="stroke-width:0.264583" />
  </g>
  <g
     style="fill:#0a2346;fill-opacity:1"
     id="g1758"
     transform="matrix(0.8797281,0,0,0.8797281,117.12968,109.09729)">
    <path
       style="color:#000000;fill:#0a2346;fill-opacity:1;enable-background:accumulate"
       d="m 7.0106173,10.00006 c -1.1046,0 -2,0.89543 -2,2 0,1.10457 0.8954,2 2,2 H 19.385617 l 10.5312,49.81246 c -0.1074,1.1395 0.9507,2.245 2.0938,2.1875 h 50 c 1.0566,0.015 2.0285,-0.9432 2.0285,-2 0,-1.0567 -0.9719,-2.0149 -2.0285,-2 h -48.375 l -1.6875,-7.9999 h 54.0625 c 0.8955,-0.01 1.7416,-0.6888 1.9375,-1.5625 l 7,-30.00005 c 0.2601,-1.16072 -0.748,-2.429 -1.9375,-2.4375 h -68.25 l -1.7812,-8.43751 c -0.1982,-0.88398 -1.0629,-1.57023 -1.9688,-1.5625 z M 25.604417,24.00007 h 64.9062 l -6.0938,26.00005 h -53.3124 z m 16.4062,47.99995 c -4.9468,0 -9,4.0531 -9,9 0,4.9469 4.0532,9 9,9 4.9469,0 9,-4.0531 9,-9 0,-4.9468 -4.0531,-9 -9,-9 z m 30,0 c -4.9468,0 -9,4.0531 -9,9 0,4.9469 4.0532,9 9,9 4.9469,0 9,-4.0531 9,-9 0,-4.9468 -4.0531,-9 -9,-9 z m -30,4 c 2.7851,0 5,2.2149 5,5 0,2.7852 -2.2149,5 -5,5 -2.785,0 -5,-2.2149 -5,-5 0,-2.785 2.215,-5 5,-5 z m 30,0 c 2.7851,0 5,2.2149 5,5 0,2.7852 -2.2149,5 -5,5 -2.785,0 -5,-2.2149 -5,-5 0,-2.785 2.215,-5 5,-5 z"
       fill="#4d4d4d"
       stroke="none"
       marker="none"
       visibility="visible"
       display="inline"
       overflow="visible"
       id="path1744" />
  </g>
</svg>
