<svg fill="#861367" xmlns:dc="http://purl.org/dc/elements/1.1/" xmlns:cc="http://creativecommons.org/ns#" xmlns:rdf="http://www.w3.org/1999/02/22-rdf-syntax-ns#" xmlns:svg="http://www.w3.org/2000/svg" xmlns="http://www.w3.org/2000/svg" xmlns:sodipodi="http://sodipodi.sourceforge.net/DTD/sodipodi-0.dtd" xmlns:inkscape="http://www.inkscape.org/namespaces/inkscape" version="1.1" x="0px" y="0px" viewBox="0 0 100 100"><g transform="translate(0,-952.36218)"><path style="text-indent:0;text-transform:none;direction:ltr;block-progression:tb;baseline-shift:baseline;color:#000000;enable-background:accumulate;" d="m 23.999999,969.36213 c -10.47405,0 -19,8.526 -19,19 l 0,27.99997 c 0,10.4741 8.52595,19.0001 19,19.0001 l 52,0 c 10.474052,0 19.000002,-8.526 19.000002,-19.0001 l 0,-27.99997 c 0,-10.474 -8.52595,-19 -19.000002,-19 l -52,0 z m 0,6 52,0 c 7.253832,0 13.000002,5.7462 13.000002,13 l 0,27.99997 c 0,7.2539 -5.74617,13.0001 -13.000002,13.0001 l -52,0 c -7.25383,0 -13,-5.7462 -13,-13.0001 l 0,-27.99997 c 0,-7.2538 5.74617,-13 13,-13 z m 16.03125,9.8438 a 2.8577991,3.1499065 0 0 0 -2.875,3.1562 l 0,27.99997 a 2.8577991,3.1499065 0 0 0 0,0.3125 2.8577991,3.1499065 0 0 0 4.25,2.4063 l 22.03125,-14 a 2.8577991,3.1499065 0 0 0 0,-5.46877 l -22.03125,-14 a 2.8577991,3.1499065 0 0 0 -1.375,-0.4062 z m 2.84375,8.5937 13.40625,8.56247 -13.40625,8.5313 0,-17.09377 z" fill="#861367" fill-opacity="1" stroke="none" marker="none" visibility="visible" display="inline" overflow="visible"></path></g></svg>